<svg width="329" height="252" viewBox="0 0 329 252" fill="none" xmlns="http://www.w3.org/2000/svg">
<path d="M17.888 4.448C17.888 6.016 17.7067 7.42933 17.344 8.688C16.992 9.936 16.3467 11.104 15.408 12.192C14.4693 13.28 13.168 14.2453 11.504 15.088L10.56 13.744C11.7547 13.136 12.736 12.4747 13.504 11.76C14.272 11.0453 14.864 10.256 15.28 9.392L10.896 9.824L10.672 8.304L15.808 7.984C15.9787 7.344 16.096 6.63467 16.16 5.856H11.408V4.448H17.888ZM19.84 3.024H21.616V8.608H23.712V10.064H21.616V17.28H19.84V3.024ZM32.1124 8.304V3.328H33.7604V16.624H32.1124V9.728H30.3524V8.304H32.1124ZM24.9764 4.672H30.2564V6.064H26.6404V8.528H29.6804V9.872H26.6404V12.64C27.5364 12.6293 28.299 12.6027 28.9284 12.56C29.5684 12.5067 30.2137 12.4213 30.8644 12.304L31.0084 13.712C30.2617 13.8507 29.5257 13.9413 28.8004 13.984C28.075 14.0267 27.1204 14.048 25.9364 14.048H24.9764V4.672ZM35.0244 3.04H36.7044V17.28H35.0244V3.04ZM50.0328 4.336V5.712C50.0328 6.928 50.0008 8.02667 49.9368 9.008C49.8834 9.98933 49.7394 11.136 49.5048 12.448L47.7288 12.256C47.9741 11.04 48.1234 9.952 48.1768 8.992C48.2408 8.02133 48.2728 6.944 48.2728 5.76H39.8408V4.336H50.0328ZM38.5128 14.016H43.2488V9.056H44.9928V14.016H51.3928V15.456H38.5128V14.016ZM64.2731 3.024V17.312H62.5131V3.024H64.2731ZM53.2491 4.304H59.9211V9.648H55.0571V12.496C56.2731 12.4853 57.3718 12.448 58.3531 12.384C59.3451 12.3093 60.3585 12.1867 61.3931 12.016L61.5691 13.44C60.4385 13.632 59.3291 13.7653 58.2411 13.84C57.1638 13.904 55.9211 13.936 54.5131 13.936H53.2811V8.24H58.1451V5.712H53.2491V4.304ZM78.3055 3.056V10.4H76.5615V8.864H73.7295V9.936H67.1215V3.664H68.8655V5.456H72.0015V3.664H73.7295V4.928H76.5615V3.056H78.3055ZM72.0015 8.56V6.8H68.8655V8.56H72.0015ZM68.9935 11.008H78.3055V14.64H70.7535V15.744H78.7535V17.12H69.0255V13.36H76.5775V12.368H68.9935V11.008ZM76.5615 7.52V6.272H73.7295V7.52H76.5615ZM89.6574 14.096V10.816H91.4174V14.096H97.0494V15.536H84.1534V14.096H89.6574ZM84.5374 9.696C85.4974 9.536 86.3614 9.216 87.1294 8.736C87.908 8.256 88.516 7.68 88.9534 7.008C89.3907 6.336 89.6094 5.648 89.6094 4.944V3.888H91.4654V4.944C91.4654 5.65867 91.684 6.352 92.1214 7.024C92.5587 7.696 93.1667 8.272 93.9454 8.752C94.724 9.22133 95.5934 9.536 96.5534 9.696L95.8014 11.184C94.6067 10.9493 93.5454 10.5067 92.6174 9.856C91.7 9.19467 91.0067 8.4 90.5374 7.472C90.068 8.4 89.364 9.19467 88.4254 9.856C87.4974 10.5067 86.4414 10.9493 85.2574 11.184L84.5374 9.696ZM109.882 3.024V17.312H108.122V3.024H109.882ZM98.8738 4.208H100.618V7.776H104.026V4.208H105.754V13.936H98.8738V4.208ZM104.026 12.528V9.152H100.618V12.528H104.026ZM128.69 10.432V11.824H123.266V14.272H121.506V11.824H115.794V10.432H128.69ZM117.346 13.12H119.09V15.6H127.266V17.024H117.346V13.12ZM117.474 3.488H119.218V5.088H125.266V3.488H127.026V9.296H117.474V3.488ZM125.266 7.904V6.416H119.218V7.904H125.266ZM139.842 5.824V3.056H141.602V11.504H139.842V7.264H137.058V5.824H139.842ZM129.73 9.872C130.829 9.488 131.671 8.87467 132.258 8.032C132.855 7.17867 133.154 6.224 133.154 5.168V3.776H134.914V5.264C134.914 6.224 135.197 7.104 135.762 7.904C136.338 8.69333 137.154 9.264 138.21 9.616L137.282 10.992C136.535 10.7253 135.885 10.336 135.33 9.824C134.786 9.30133 134.359 8.69333 134.05 8C133.73 8.768 133.282 9.43467 132.706 10C132.13 10.5547 131.442 10.976 130.642 11.264L129.73 9.872ZM131.986 12.192H141.602V17.296H139.842V13.6H131.986V12.192Z" fill="black"/>
<path d="M306.933 185.294C302.637 201.326 293.992 215.858 281.952 227.284C269.912 238.709 254.947 246.582 238.712 250.033C222.477 253.484 205.603 252.378 189.957 246.838C174.311 241.297 160.502 231.538 150.057 218.639C139.611 205.74 132.936 190.203 130.77 173.747C128.603 157.291 131.03 140.557 137.781 125.394C144.532 110.231 155.345 97.2299 169.023 87.8287C182.702 78.4274 198.714 72.992 215.29 72.1233L217.645 117.062C209.357 117.496 201.351 120.214 194.512 124.914C187.672 129.615 182.266 136.115 178.89 143.697C175.515 151.278 174.302 159.646 175.385 167.874C176.468 176.102 179.806 183.87 185.028 190.319C190.251 196.769 197.156 201.649 204.979 204.419C212.802 207.189 221.238 207.742 229.356 206.017C237.474 204.291 244.956 200.355 250.976 194.642C256.996 188.929 261.319 181.663 263.467 173.647L306.933 185.294Z" fill="#4097FF"/>
<path d="M196.706 75.0667C211.966 70.9778 228.034 70.9778 243.294 75.0667C258.554 79.1556 272.469 87.1893 283.64 98.3604C294.811 109.531 302.844 123.446 306.933 138.706C311.022 153.966 311.022 170.034 306.933 185.294L263.467 173.647C265.511 166.017 265.511 157.983 263.467 150.353C261.422 142.723 257.405 135.766 251.82 130.18C246.234 124.595 239.277 120.578 231.647 118.533C224.017 116.489 215.983 116.489 208.353 118.533L196.706 75.0667Z" fill="#003EC3"/>
<rect x="6" y="30" width="30" height="15" rx="5" fill="#4097FF"/>
<path d="M61.038 32.716V37.686H62.956V38.708H61.038V45.05H59.806V32.716H61.038ZM51.574 41.816C53.114 41.0413 54.304 40.0847 55.144 38.946C55.9933 37.798 56.4833 36.496 56.614 35.04H52.176V34.046H57.846C57.846 35.9033 57.3933 37.5787 56.488 39.072C55.592 40.556 54.1827 41.7787 52.26 42.74L51.574 41.816ZM73.4703 33.528V34.606C73.4703 35.3993 73.4517 36.104 73.4143 36.72C73.377 37.336 73.279 38.036 73.1203 38.82H74.9123V39.828H69.9283V45.078H68.6963V39.828H63.7683V38.82H71.8883C72.0563 38.0453 72.159 37.35 72.1963 36.734C72.243 36.1087 72.2663 35.3993 72.2663 34.606V34.508H65.1543V33.528H73.4703Z" fill="black"/>
<rect x="6" y="57" width="30" height="15" rx="5" fill="#003EC3"/>
<path d="M62.004 59.744V72.064H60.842V65.666H59.33V71.42H58.182V60.01H59.33V64.672H60.842V59.744H62.004ZM51.392 68.046C51.924 68.046 52.344 68.0413 52.652 68.032V62.25H51.63V61.256H57.328V62.25H56.306V67.878C56.7447 67.85 57.1507 67.808 57.524 67.752L57.608 68.634C56.1893 68.914 54.164 69.054 51.532 69.054L51.392 68.046ZM55.2 67.962V62.25H53.758V68.018L55.2 67.962ZM72.7003 61.508V59.744H73.9183V68.928H72.7003V65.022H70.2783V64.028H72.7003V62.516H70.2783V61.508H72.7003ZM63.7683 66.366C64.6923 66.002 65.4297 65.4233 65.9803 64.63C66.531 63.8273 66.8063 62.9453 66.8063 61.984V60.416H68.0243V61.984C68.0243 62.8893 68.2903 63.7293 68.8223 64.504C69.3637 65.2693 70.0777 65.8247 70.9643 66.17L70.3063 67.122C69.6437 66.842 69.065 66.4453 68.5703 65.932C68.0757 65.4093 67.6977 64.812 67.4363 64.14C67.1657 64.868 66.769 65.512 66.2463 66.072C65.733 66.6227 65.1217 67.038 64.4123 67.318L63.7683 66.366ZM65.9663 68.004H67.1703V70.804H74.2123V71.784H65.9663V68.004Z" fill="black"/>
<rect x="268" y="90" width="58" height="30" rx="15" fill="#F1F1F1"/>
<path d="M285.136 105.016C285.659 105.315 286.085 105.725 286.416 106.248C286.747 106.76 286.912 107.267 286.912 107.768C286.912 108.419 286.736 109.005 286.384 109.528C286.043 110.04 285.557 110.44 284.928 110.728C284.309 111.016 283.605 111.16 282.816 111.16C282.027 111.16 281.317 111.011 280.688 110.712C280.069 110.403 279.584 109.981 279.232 109.448C278.891 108.904 278.72 108.285 278.72 107.592H280.784C280.784 108.104 280.971 108.525 281.344 108.856C281.728 109.176 282.219 109.336 282.816 109.336C283.435 109.336 283.941 109.176 284.336 108.856C284.731 108.525 284.928 108.104 284.928 107.592C284.928 107.091 284.731 106.68 284.336 106.36C283.952 106.029 283.456 105.864 282.848 105.864H282.032V104.184H282.864C283.419 104.184 283.872 104.04 284.224 103.752C284.576 103.453 284.752 103.075 284.752 102.616C284.752 102.168 284.581 101.805 284.24 101.528C283.899 101.24 283.461 101.096 282.928 101.096C282.405 101.096 281.979 101.24 281.648 101.528C281.317 101.816 281.152 102.184 281.152 102.632H279.088C279.088 101.981 279.248 101.4 279.568 100.888C279.899 100.376 280.352 99.9813 280.928 99.704C281.515 99.416 282.181 99.272 282.928 99.272C283.664 99.272 284.32 99.4107 284.896 99.688C285.472 99.9547 285.92 100.328 286.24 100.808C286.56 101.288 286.72 101.837 286.72 102.456C286.72 102.915 286.571 103.384 286.272 103.864C285.984 104.344 285.605 104.728 285.136 105.016ZM292.889 109.368C293.391 109.368 293.828 109.197 294.201 108.856C294.575 108.515 294.863 108.029 295.065 107.4C295.268 106.771 295.369 106.04 295.369 105.208C295.369 104.376 295.268 103.645 295.065 103.016C294.863 102.387 294.575 101.901 294.201 101.56C293.828 101.219 293.391 101.048 292.889 101.048C292.388 101.048 291.945 101.219 291.561 101.56C291.188 101.901 290.895 102.387 290.681 103.016C290.479 103.645 290.377 104.376 290.377 105.208C290.377 106.04 290.479 106.771 290.681 107.4C290.895 108.029 291.188 108.515 291.561 108.856C291.945 109.197 292.388 109.368 292.889 109.368ZM288.313 105.208C288.313 104.056 288.505 103.027 288.889 102.12C289.284 101.213 289.828 100.509 290.521 100.008C291.215 99.496 292.004 99.24 292.889 99.24C293.764 99.24 294.548 99.496 295.241 100.008C295.935 100.509 296.473 101.213 296.857 102.12C297.241 103.027 297.433 104.056 297.433 105.208C297.433 106.36 297.241 107.389 296.857 108.296C296.473 109.203 295.935 109.912 295.241 110.424C294.548 110.925 293.764 111.176 292.889 111.176C292.004 111.176 291.215 110.925 290.521 110.424C289.828 109.912 289.284 109.203 288.889 108.296C288.505 107.389 288.313 106.36 288.313 105.208ZM309.485 99.24H311.533L304.029 111.176H302.029L309.485 99.24ZM299.277 102.28C299.277 101.683 299.415 101.139 299.693 100.648C299.981 100.147 300.365 99.752 300.845 99.464C301.325 99.176 301.858 99.032 302.445 99.032C303.021 99.032 303.549 99.176 304.029 99.464C304.509 99.752 304.887 100.147 305.165 100.648C305.453 101.139 305.597 101.683 305.597 102.28C305.597 102.877 305.458 103.427 305.181 103.928C304.903 104.419 304.519 104.808 304.029 105.096C303.549 105.384 303.021 105.528 302.445 105.528C301.858 105.528 301.325 105.384 300.845 105.096C300.365 104.808 299.981 104.419 299.693 103.928C299.415 103.427 299.277 102.877 299.277 102.28ZM301.165 102.28C301.165 102.664 301.287 102.989 301.533 103.256C301.778 103.512 302.082 103.64 302.445 103.64C302.807 103.64 303.111 103.512 303.357 103.256C303.602 102.989 303.725 102.664 303.725 102.28C303.725 101.907 303.602 101.592 303.357 101.336C303.111 101.069 302.807 100.936 302.445 100.936C302.082 100.936 301.778 101.069 301.533 101.336C301.287 101.592 301.165 101.907 301.165 102.28ZM307.805 108.008C307.805 107.411 307.943 106.867 308.221 106.376C308.509 105.875 308.893 105.48 309.373 105.192C309.853 104.904 310.386 104.76 310.973 104.76C311.549 104.76 312.077 104.904 312.557 105.192C313.047 105.48 313.431 105.875 313.709 106.376C313.986 106.867 314.125 107.411 314.125 108.008C314.125 108.605 313.981 109.155 313.693 109.656C313.415 110.147 313.037 110.536 312.557 110.824C312.077 111.112 311.549 111.256 310.973 111.256C310.386 111.256 309.853 111.112 309.373 110.824C308.893 110.536 308.509 110.147 308.221 109.656C307.943 109.155 307.805 108.605 307.805 108.008ZM309.693 108.008C309.693 108.381 309.815 108.701 310.061 108.968C310.306 109.235 310.61 109.368 310.973 109.368C311.335 109.368 311.639 109.235 311.885 108.968C312.13 108.701 312.253 108.381 312.253 108.008C312.253 107.624 312.13 107.304 311.885 107.048C311.639 106.781 311.335 106.648 310.973 106.648C310.61 106.648 310.306 106.781 310.061 107.048C309.815 107.304 309.693 107.624 309.693 108.008Z" fill="#003EC3"/>
<rect x="148" y="202" width="57" height="30" rx="15" fill="#F1F1F1"/>
<path d="M159.68 223.144L164.176 213.08L159.024 213.096V211.288H166.288L166.448 213.08L161.952 223.144H159.68ZM172.452 221.368C172.953 221.368 173.391 221.197 173.764 220.856C174.137 220.515 174.425 220.029 174.628 219.4C174.831 218.771 174.932 218.04 174.932 217.208C174.932 216.376 174.831 215.645 174.628 215.016C174.425 214.387 174.137 213.901 173.764 213.56C173.391 213.219 172.953 213.048 172.452 213.048C171.951 213.048 171.508 213.219 171.124 213.56C170.751 213.901 170.457 214.387 170.244 215.016C170.041 215.645 169.94 216.376 169.94 217.208C169.94 218.04 170.041 218.771 170.244 219.4C170.457 220.029 170.751 220.515 171.124 220.856C171.508 221.197 171.951 221.368 172.452 221.368ZM167.876 217.208C167.876 216.056 168.068 215.027 168.452 214.12C168.847 213.213 169.391 212.509 170.084 212.008C170.777 211.496 171.567 211.24 172.452 211.24C173.327 211.24 174.111 211.496 174.804 212.008C175.497 212.509 176.036 213.213 176.42 214.12C176.804 215.027 176.996 216.056 176.996 217.208C176.996 218.36 176.804 219.389 176.42 220.296C176.036 221.203 175.497 221.912 174.804 222.424C174.111 222.925 173.327 223.176 172.452 223.176C171.567 223.176 170.777 222.925 170.084 222.424C169.391 221.912 168.847 221.203 168.452 220.296C168.068 219.389 167.876 218.36 167.876 217.208ZM189.047 211.24H191.095L183.591 223.176H181.591L189.047 211.24ZM178.839 214.28C178.839 213.683 178.978 213.139 179.255 212.648C179.543 212.147 179.927 211.752 180.407 211.464C180.887 211.176 181.42 211.032 182.007 211.032C182.583 211.032 183.111 211.176 183.591 211.464C184.071 211.752 184.45 212.147 184.727 212.648C185.015 213.139 185.159 213.683 185.159 214.28C185.159 214.877 185.02 215.427 184.743 215.928C184.466 216.419 184.082 216.808 183.591 217.096C183.111 217.384 182.583 217.528 182.007 217.528C181.42 217.528 180.887 217.384 180.407 217.096C179.927 216.808 179.543 216.419 179.255 215.928C178.978 215.427 178.839 214.877 178.839 214.28ZM180.727 214.28C180.727 214.664 180.85 214.989 181.095 215.256C181.34 215.512 181.644 215.64 182.007 215.64C182.37 215.64 182.674 215.512 182.919 215.256C183.164 214.989 183.287 214.664 183.287 214.28C183.287 213.907 183.164 213.592 182.919 213.336C182.674 213.069 182.37 212.936 182.007 212.936C181.644 212.936 181.34 213.069 181.095 213.336C180.85 213.592 180.727 213.907 180.727 214.28ZM187.367 220.008C187.367 219.411 187.506 218.867 187.783 218.376C188.071 217.875 188.455 217.48 188.935 217.192C189.415 216.904 189.948 216.76 190.535 216.76C191.111 216.76 191.639 216.904 192.119 217.192C192.61 217.48 192.994 217.875 193.271 218.376C193.548 218.867 193.687 219.411 193.687 220.008C193.687 220.605 193.543 221.155 193.255 221.656C192.978 222.147 192.599 222.536 192.119 222.824C191.639 223.112 191.111 223.256 190.535 223.256C189.948 223.256 189.415 223.112 188.935 222.824C188.455 222.536 188.071 222.147 187.783 221.656C187.506 221.155 187.367 220.605 187.367 220.008ZM189.255 220.008C189.255 220.381 189.378 220.701 189.623 220.968C189.868 221.235 190.172 221.368 190.535 221.368C190.898 221.368 191.202 221.235 191.447 220.968C191.692 220.701 191.815 220.381 191.815 220.008C191.815 219.624 191.692 219.304 191.447 219.048C191.202 218.781 190.898 218.648 190.535 218.648C190.172 218.648 189.868 218.781 189.623 219.048C189.378 219.304 189.255 219.624 189.255 220.008Z" fill="#4097FF"/>
</svg>
