<svg width="361" height="275" viewBox="0 0 361 275" fill="none" xmlns="http://www.w3.org/2000/svg">
<rect x="1" y="1" width="359" height="273" rx="15" fill="white"/>
<g clip-path="url(#clip0_1_1457)">
<path d="M25.072 39.644V34.724H27.712V39.644H36.16V41.804H16.816V39.644H25.072ZM17.392 33.044C18.832 32.804 20.128 32.324 21.28 31.604C22.448 30.884 23.36 30.02 24.016 29.012C24.672 28.004 25 26.972 25 25.916V24.332H27.784V25.916C27.784 26.988 28.112 28.028 28.768 29.036C29.424 30.044 30.336 30.908 31.504 31.628C32.672 32.332 33.976 32.804 35.416 33.044L34.288 35.276C32.496 34.924 30.904 34.26 29.512 33.284C28.136 32.292 27.096 31.1 26.392 29.708C25.688 31.1 24.632 32.292 23.224 33.284C21.832 34.26 20.248 34.924 18.472 35.276L17.392 33.044ZM55.4086 23.036V44.468H52.7686V23.036H55.4086ZM38.8966 24.812H41.5126V30.164H46.6246V24.812H49.2166V39.404H38.8966V24.812ZM46.6246 37.292V32.228H41.5126V37.292H46.6246ZM81.1484 25.124V27.524C81.1484 29.46 81.1004 31.172 81.0044 32.66C80.9244 34.132 80.7164 35.86 80.3804 37.844L77.7404 37.604C78.0924 35.748 78.3084 34.084 78.3884 32.612C78.4844 31.14 78.5324 29.444 78.5324 27.524V27.236H66.3164V25.124H81.1484ZM64.3004 39.356H83.6204V41.516H64.3004V39.356ZM93.9169 25.244V33.212H88.4449V37.388C90.7329 37.356 92.8929 37.188 94.9249 36.884L95.1409 39.02C93.8289 39.244 92.5809 39.396 91.3969 39.476C90.2129 39.54 88.8689 39.572 87.3649 39.572H85.9009V31.124H91.3729V27.356H85.8769V25.244H93.9169ZM96.1969 23.492H98.6689V31.292H100.997V23.06H103.517V44.42H100.997V33.404H98.6689V43.364H96.1969V23.492ZM125.598 39.668V41.852H106.254V39.668H125.598ZM107.814 25.004H123.918V27.14H120.87V33.932H123.87V36.044H107.91V33.932H110.886V27.14H107.814V25.004ZM118.254 33.932V27.14H113.526V33.932H118.254Z" fill="black"/>
<circle cx="240" cy="33.5" r="4.5" fill="#4C95ED" stroke="#EAEBED"/>
<path d="M256.98 28.268V32.408H258.54V33.5H256.98V38.96H255.648V28.268H256.98ZM249.036 29.312H250.344V35.228C251.904 35.204 253.404 35.048 254.844 34.76L254.988 35.84C253.492 36.152 251.804 36.308 249.924 36.308H249.036V29.312Z" fill="black"/>
<circle cx="274" cy="33.5" r="4.5" fill="#BCC5CF" stroke="#EAEBED"/>
<path d="M292.476 34.28V35.36H290.124V38.96H288.78V35.36H286.452V38.96H285.096V35.36H282.804V34.28H292.476ZM283.8 31.04C283.8 30.56 283.96 30.144 284.28 29.792C284.6 29.44 285.044 29.168 285.612 28.976C286.188 28.784 286.852 28.688 287.604 28.688C288.356 28.688 289.02 28.784 289.596 28.976C290.172 29.168 290.62 29.44 290.94 29.792C291.26 30.144 291.42 30.56 291.42 31.04C291.42 31.52 291.26 31.94 290.94 32.3C290.62 32.652 290.172 32.924 289.596 33.116C289.02 33.308 288.356 33.404 287.604 33.404C286.852 33.404 286.188 33.308 285.612 33.116C285.044 32.924 284.6 32.652 284.28 32.3C283.96 31.94 283.8 31.52 283.8 31.04ZM285.156 31.04C285.156 31.456 285.376 31.78 285.816 32.012C286.256 32.236 286.852 32.348 287.604 32.348C288.364 32.348 288.964 32.236 289.404 32.012C289.852 31.78 290.076 31.456 290.076 31.04C290.076 30.632 289.852 30.312 289.404 30.08C288.956 29.848 288.356 29.732 287.604 29.732C286.852 29.732 286.256 29.848 285.816 30.08C285.376 30.312 285.156 30.632 285.156 31.04ZM297.085 29.156V30.836C297.085 31.476 297.185 32.104 297.385 32.72C297.593 33.336 297.889 33.888 298.273 34.376C298.657 34.856 299.117 35.228 299.653 35.492L298.849 36.536C298.289 36.248 297.805 35.84 297.397 35.312C296.989 34.784 296.669 34.172 296.437 33.476C296.197 34.22 295.861 34.876 295.429 35.444C294.997 36.012 294.485 36.444 293.893 36.74L293.101 35.672C293.653 35.408 294.129 35.024 294.529 34.52C294.937 34.008 295.245 33.432 295.453 32.792C295.669 32.152 295.777 31.5 295.777 30.836V29.156H297.085ZM300.265 28.292H301.597V32.48H303.229V33.584H301.597V38.972H300.265V28.292ZM310.339 29.156V30.836C310.339 31.476 310.439 32.104 310.639 32.72C310.847 33.336 311.143 33.888 311.527 34.376C311.911 34.856 312.371 35.228 312.907 35.492L312.103 36.536C311.543 36.248 311.059 35.84 310.651 35.312C310.243 34.784 309.923 34.172 309.691 33.476C309.451 34.22 309.115 34.876 308.683 35.444C308.251 36.012 307.739 36.444 307.147 36.74L306.355 35.672C306.907 35.408 307.383 35.024 307.783 34.52C308.191 34.008 308.499 33.432 308.707 32.792C308.923 32.152 309.031 31.5 309.031 30.836V29.156H310.339ZM313.519 28.292H314.851V32.48H316.483V33.584H314.851V38.972H313.519V28.292ZM319.279 33.44V32.072C318.879 31.896 318.571 31.676 318.355 31.412C318.139 31.14 318.031 30.832 318.031 30.488C318.031 29.856 318.375 29.36 319.063 29C319.751 28.64 320.683 28.46 321.859 28.46C323.035 28.46 323.967 28.64 324.655 29C325.343 29.36 325.687 29.856 325.687 30.488C325.687 30.832 325.575 31.14 325.351 31.412C325.135 31.684 324.823 31.908 324.415 32.084V33.44H326.683V34.472H317.035V33.44H319.279ZM318.151 37.04C318.151 36.432 318.475 35.96 319.123 35.624C319.779 35.288 320.687 35.12 321.847 35.12C322.999 35.12 323.899 35.288 324.547 35.624C325.203 35.96 325.531 36.432 325.531 37.04C325.531 37.656 325.203 38.132 324.547 38.468C323.899 38.804 322.999 38.972 321.847 38.972C320.687 38.972 319.779 38.804 319.123 38.468C318.475 38.132 318.151 37.656 318.151 37.04ZM319.387 30.488C319.387 30.816 319.603 31.068 320.035 31.244C320.467 31.42 321.075 31.508 321.859 31.508C322.635 31.508 323.239 31.42 323.671 31.244C324.103 31.068 324.319 30.816 324.319 30.488C324.319 30.16 324.103 29.908 323.671 29.732C323.239 29.556 322.635 29.468 321.859 29.468C321.075 29.468 320.467 29.556 320.035 29.732C319.603 29.908 319.387 30.16 319.387 30.488ZM319.483 37.04C319.483 37.344 319.683 37.576 320.083 37.736C320.491 37.888 321.079 37.964 321.847 37.964C322.615 37.964 323.199 37.888 323.599 37.736C323.999 37.576 324.199 37.344 324.199 37.04C324.199 36.744 323.999 36.52 323.599 36.368C323.199 36.208 322.615 36.128 321.847 36.128C321.079 36.128 320.491 36.208 320.083 36.368C319.683 36.52 319.483 36.744 319.483 37.04ZM323.107 33.44V32.42C322.747 32.476 322.331 32.504 321.859 32.504C321.371 32.504 320.947 32.476 320.587 32.42V33.44H323.107ZM333.535 29.336V30.428H331.315V31.316C331.315 31.868 331.419 32.432 331.627 33.008C331.843 33.576 332.151 34.096 332.551 34.568C332.959 35.032 333.431 35.388 333.967 35.636L333.235 36.68C332.651 36.4 332.139 35.996 331.699 35.468C331.267 34.932 330.927 34.324 330.679 33.644C330.431 34.388 330.083 35.052 329.635 35.636C329.187 36.212 328.663 36.648 328.063 36.944L327.307 35.9C327.843 35.636 328.315 35.26 328.723 34.772C329.139 34.276 329.455 33.728 329.671 33.128C329.895 32.52 330.007 31.916 330.007 31.316V30.428H327.703V29.336H333.535ZM334.495 28.292H335.827V32.456H337.447V33.548H335.827V38.972H334.495V28.292Z" fill="black"/>
</g>
<g clip-path="url(#clip1_1_1457)">
<path d="M296.326 52.9V55.42H297.566V56.31H296.326V59.34H295.226V52.9H296.326ZM289.726 53.63H293.686V54.52H290.826V56.95C291.679 56.9433 292.369 56.92 292.896 56.88C293.422 56.84 293.936 56.77 294.436 56.67L294.546 57.54C293.986 57.66 293.406 57.7433 292.806 57.79C292.212 57.83 291.426 57.85 290.446 57.85H289.726V53.63ZM290.666 58.68H291.766V60.75H296.676V61.63H290.666V58.68ZM300.976 53.28C301.416 53.28 301.813 53.36 302.166 53.52C302.519 53.68 302.793 53.9033 302.986 54.19C303.186 54.47 303.286 54.7933 303.286 55.16C303.286 55.52 303.186 55.8433 302.986 56.13C302.793 56.41 302.519 56.63 302.166 56.79C301.813 56.95 301.416 57.03 300.976 57.03C300.536 57.03 300.139 56.95 299.786 56.79C299.439 56.63 299.166 56.41 298.966 56.13C298.766 55.8433 298.666 55.52 298.666 55.16C298.666 54.7933 298.766 54.47 298.966 54.19C299.166 53.9033 299.439 53.68 299.786 53.52C300.139 53.36 300.536 53.28 300.976 53.28ZM298.096 57.64C299.223 57.64 300.246 57.6233 301.166 57.59C302.093 57.55 302.979 57.4633 303.826 57.33L303.896 58.14C303.223 58.2733 302.446 58.3733 301.566 58.44V61.53H300.466V58.51C299.746 58.5367 298.999 58.55 298.226 58.55L298.096 57.64ZM299.726 55.16C299.726 55.4533 299.843 55.69 300.076 55.87C300.309 56.0433 300.609 56.13 300.976 56.13C301.349 56.13 301.653 56.0433 301.886 55.87C302.119 55.69 302.236 55.4533 302.236 55.16C302.236 54.86 302.119 54.6233 301.886 54.45C301.653 54.27 301.349 54.18 300.976 54.18C300.609 54.18 300.309 54.27 300.076 54.45C299.843 54.6233 299.726 54.86 299.726 55.16ZM304.376 52.9H305.476V61.81H304.376V52.9ZM307.986 55.1C308.159 55.1 308.299 55.1567 308.406 55.27C308.519 55.3767 308.576 55.5167 308.576 55.69C308.576 55.8633 308.519 56.0067 308.406 56.12C308.299 56.2333 308.159 56.29 307.986 56.29C307.813 56.29 307.669 56.2333 307.556 56.12C307.449 56.0067 307.396 55.8633 307.396 55.69C307.396 55.5167 307.453 55.3767 307.566 55.27C307.679 55.1567 307.819 55.1 307.986 55.1ZM307.396 59.05C307.396 58.8767 307.453 58.7367 307.566 58.63C307.679 58.5167 307.819 58.46 307.986 58.46C308.159 58.46 308.299 58.5167 308.406 58.63C308.519 58.7367 308.576 58.8767 308.576 59.05C308.576 59.2233 308.519 59.3667 308.406 59.48C308.299 59.5933 308.159 59.65 307.986 59.65C307.813 59.65 307.669 59.5933 307.556 59.48C307.449 59.3667 307.396 59.2233 307.396 59.05ZM315.389 53.18V54C315.389 54.58 315.576 55.1067 315.949 55.58C316.329 56.0533 316.859 56.3933 317.539 56.6L317.009 57.46C316.503 57.3 316.066 57.0667 315.699 56.76C315.339 56.4467 315.056 56.0733 314.849 55.64C314.649 56.1067 314.363 56.5133 313.989 56.86C313.616 57.2 313.166 57.4533 312.639 57.62L312.099 56.76C312.793 56.54 313.329 56.1767 313.709 55.67C314.089 55.1633 314.279 54.6067 314.279 54V53.18H315.389ZM313.619 58.1H314.699V59.02H318.379V58.1H319.459V61.7H313.619V58.1ZM318.379 60.82V59.87H314.699V60.82H318.379ZM318.359 52.91H319.459V57.68H318.359V52.91ZM325.35 53.66V57.9H321.17V53.66H325.35ZM322.17 58.77H323.27V60.75H328.18V61.63H322.17V58.77ZM324.27 57.01V54.53H322.25V57.01H324.27ZM326.73 52.9H327.83V55.52H329.06V56.43H327.83V59.4H326.73V52.9ZM337 52.9V59.66H335.9V58.87H334.18V58.11H335.9V52.9H337ZM329.55 56.91C330.69 56.9033 331.716 56.8833 332.63 56.85C333.543 56.8167 334.416 56.75 335.25 56.65L335.31 57.43C334.636 57.5433 333.896 57.6267 333.09 57.68V59.39H331.99V57.74C331.31 57.7733 330.543 57.79 329.69 57.79L329.55 56.91ZM330.21 54.8C330.21 54.4933 330.303 54.22 330.49 53.98C330.676 53.74 330.936 53.5567 331.27 53.43C331.61 53.2967 331.993 53.23 332.42 53.23C332.853 53.23 333.236 53.2967 333.57 53.43C333.903 53.5567 334.163 53.74 334.35 53.98C334.536 54.22 334.63 54.4933 334.63 54.8C334.63 55.1133 334.536 55.39 334.35 55.63C334.163 55.87 333.903 56.0567 333.57 56.19C333.236 56.3167 332.853 56.38 332.42 56.38C331.986 56.38 331.603 56.3167 331.27 56.19C330.936 56.0567 330.676 55.87 330.49 55.63C330.303 55.39 330.21 55.1133 330.21 54.8ZM330.72 59.01H331.82V60.75H337.21V61.63H330.72V59.01ZM331.26 54.8C331.26 55.04 331.366 55.23 331.58 55.37C331.793 55.5033 332.073 55.57 332.42 55.57C332.773 55.57 333.053 55.5033 333.26 55.37C333.473 55.23 333.58 55.04 333.58 54.8C333.58 54.56 333.473 54.3733 333.26 54.24C333.053 54.1 332.773 54.03 332.42 54.03C332.073 54.03 331.793 54.1 331.58 54.24C331.366 54.3733 331.26 54.56 331.26 54.8Z" fill="#797979"/>
<path opacity="0.2" d="M31 239.5H335" stroke="#CCCCCC"/>
<path opacity="0.2" d="M31 197.25H335" stroke="#CCCCCC"/>
<path opacity="0.2" d="M31 155H335" stroke="#CCCCCC"/>
<path opacity="0.2" d="M31 112.75H335" stroke="#CCCCCC"/>
<path opacity="0.2" d="M31 70.5H335" stroke="#CCCCCC"/>
<path opacity="0.2" d="M31.5 70V240" stroke="#CCCCCC"/>
<path opacity="0.2" d="M82 70V240" stroke="#CCCCCC"/>
<path opacity="0.2" d="M132.5 70V240" stroke="#CCCCCC"/>
<path opacity="0.2" d="M183 70V240" stroke="#CCCCCC"/>
<path opacity="0.2" d="M233.5 70V240" stroke="#CCCCCC"/>
<path opacity="0.2" d="M284 70V240" stroke="#CCCCCC"/>
<path opacity="0.2" d="M334.5 70V240" stroke="#CCCCCC"/>
<path d="M17.3358 243.448C17.7758 243.448 18.1678 243.288 18.5118 242.968C18.8638 242.648 19.1358 242.2 19.3278 241.624C19.5198 241.048 19.6158 240.396 19.6158 239.668C19.6158 238.94 19.5198 238.292 19.3278 237.724C19.1358 237.148 18.8638 236.7 18.5118 236.38C18.1678 236.06 17.7758 235.9 17.3358 235.9C16.8958 235.9 16.4998 236.06 16.1478 236.38C15.8038 236.7 15.5318 237.148 15.3318 237.724C15.1398 238.292 15.0438 238.94 15.0438 239.668C15.0438 240.396 15.1398 241.048 15.3318 241.624C15.5318 242.2 15.8038 242.648 16.1478 242.968C16.4998 243.288 16.8958 243.448 17.3358 243.448ZM14.3238 239.668C14.3238 238.82 14.4518 238.064 14.7078 237.4C14.9638 236.728 15.3198 236.204 15.7758 235.828C16.2318 235.452 16.7518 235.264 17.3358 235.264C17.9198 235.264 18.4358 235.452 18.8838 235.828C19.3398 236.204 19.6958 236.728 19.9518 237.4C20.2078 238.064 20.3358 238.82 20.3358 239.668C20.3358 240.524 20.2078 241.288 19.9518 241.96C19.6958 242.624 19.3398 243.144 18.8838 243.52C18.4358 243.896 17.9198 244.084 17.3358 244.084C16.7518 244.084 16.2318 243.896 15.7758 243.52C15.3198 243.144 14.9638 242.624 14.7078 241.96C14.4518 241.288 14.3238 240.524 14.3238 239.668Z" fill="black"/>
<path d="M15.0981 201.114C15.3141 200.898 15.6701 200.558 16.1661 200.094C16.8781 199.422 17.4541 198.858 17.8941 198.402C18.3341 197.946 18.7101 197.478 19.0221 196.998C19.3341 196.51 19.4901 196.058 19.4901 195.642C19.4901 195.05 19.3221 194.566 18.9861 194.19C18.6581 193.814 18.2261 193.626 17.6901 193.626C17.3141 193.626 16.9461 193.758 16.5861 194.022C16.2341 194.278 15.9701 194.614 15.7941 195.03L15.1341 194.754C15.3581 194.234 15.7061 193.81 16.1781 193.482C16.6581 193.154 17.1621 192.99 17.6901 192.99C18.1781 192.99 18.6141 193.102 18.9981 193.326C19.3821 193.55 19.6781 193.866 19.8861 194.274C20.1021 194.674 20.2101 195.13 20.2101 195.642C20.2101 196.146 20.0461 196.67 19.7181 197.214C19.3901 197.75 18.9941 198.258 18.5301 198.738C18.0741 199.218 17.4781 199.802 16.7421 200.49L16.0701 201.114H20.3421V201.762H15.2061L15.0981 201.114Z" fill="black"/>
<path d="M18.992 155.024C19.392 155.216 19.716 155.5 19.964 155.876C20.212 156.252 20.336 156.644 20.336 157.052C20.336 157.54 20.216 157.976 19.976 158.36C19.744 158.736 19.42 159.032 19.004 159.248C18.588 159.464 18.112 159.572 17.576 159.572C17.04 159.572 16.564 159.464 16.148 159.248C15.732 159.032 15.408 158.736 15.176 158.36C14.944 157.976 14.828 157.54 14.828 157.052H15.548C15.548 157.604 15.736 158.056 16.112 158.408C16.496 158.76 16.984 158.936 17.576 158.936C18.176 158.936 18.664 158.764 19.04 158.42C19.424 158.076 19.616 157.636 19.616 157.1C19.616 156.588 19.428 156.168 19.052 155.84C18.676 155.512 18.192 155.348 17.6 155.348H17.108V154.688H17.6C18.152 154.688 18.604 154.536 18.956 154.232C19.316 153.928 19.496 153.536 19.496 153.056C19.496 152.568 19.32 152.168 18.968 151.856C18.624 151.544 18.184 151.388 17.648 151.388C17.096 151.388 16.644 151.552 16.292 151.88C15.948 152.2 15.776 152.612 15.776 153.116H15.056C15.056 152.66 15.164 152.252 15.38 151.892C15.604 151.532 15.912 151.252 16.304 151.052C16.696 150.852 17.144 150.752 17.648 150.752C18.144 150.752 18.584 150.852 18.968 151.052C19.36 151.252 19.664 151.532 19.88 151.892C20.104 152.252 20.216 152.66 20.216 153.116C20.216 153.476 20.104 153.832 19.88 154.184C19.664 154.536 19.368 154.816 18.992 155.024Z" fill="black"/>
<path d="M18.9923 114.118H20.3483V114.754H18.9923V117.25H18.2723V114.754H14.4083L14.3123 114.106L18.2963 108.586H18.9923V114.118ZM18.2723 114.118V109.846L15.1883 114.118H18.2723Z" fill="black"/>
<path d="M15.1662 70.776L15.4302 66.324H19.7262V66.972H16.1262L15.9462 69.936C16.1862 69.792 16.4382 69.68 16.7022 69.6C16.9742 69.512 17.2342 69.468 17.4822 69.468C18.0342 69.468 18.5262 69.588 18.9582 69.828C19.3902 70.06 19.7262 70.388 19.9662 70.812C20.2142 71.236 20.3382 71.716 20.3382 72.252C20.3382 72.804 20.2142 73.296 19.9662 73.728C19.7262 74.16 19.3902 74.5 18.9582 74.748C18.5262 74.988 18.0342 75.108 17.4822 75.108C16.8262 75.108 16.2422 74.908 15.7302 74.508C15.2182 74.108 14.8862 73.596 14.7342 72.972L15.4422 72.804C15.5542 73.284 15.7982 73.676 16.1742 73.98C16.5502 74.276 16.9862 74.424 17.4822 74.424C17.8902 74.424 18.2542 74.332 18.5742 74.148C18.9022 73.964 19.1582 73.708 19.3422 73.38C19.5262 73.044 19.6182 72.668 19.6182 72.252C19.6182 71.844 19.5262 71.48 19.3422 71.16C19.1582 70.84 18.9022 70.592 18.5742 70.416C18.2542 70.232 17.8902 70.14 17.4822 70.14C17.2022 70.14 16.9142 70.212 16.6182 70.356C16.3222 70.492 16.0782 70.672 15.8862 70.896L15.1662 70.776Z" fill="black"/>
<path d="M24.0817 256.54C24.4217 256.54 24.725 256.467 24.9917 256.32C25.2583 256.167 25.465 255.953 25.6117 255.68C25.765 255.407 25.8417 255.097 25.8417 254.75C25.8417 254.403 25.765 254.093 25.6117 253.82C25.465 253.547 25.2583 253.333 24.9917 253.18C24.725 253.027 24.4217 252.95 24.0817 252.95C23.755 252.95 23.4617 253.027 23.2017 253.18C22.9417 253.333 22.7383 253.547 22.5917 253.82C22.445 254.093 22.3717 254.403 22.3717 254.75C22.3717 255.097 22.445 255.407 22.5917 255.68C22.7383 255.953 22.9383 256.167 23.1917 256.32C23.4517 256.467 23.7483 256.54 24.0817 256.54ZM21.7717 254.75C21.7717 254.297 21.885 253.867 22.1117 253.46L24.2217 249.78H24.9117L23.3217 252.54C23.5817 252.453 23.8383 252.41 24.0917 252.41C24.545 252.41 24.9483 252.51 25.3017 252.71C25.6617 252.91 25.9417 253.187 26.1417 253.54C26.3417 253.893 26.4417 254.297 26.4417 254.75C26.4417 255.203 26.3417 255.607 26.1417 255.96C25.9417 256.313 25.6617 256.59 25.3017 256.79C24.9483 256.983 24.545 257.08 24.0917 257.08C23.645 257.08 23.245 256.983 22.8917 256.79C22.5383 256.59 22.2617 256.313 22.0617 255.96C21.8683 255.607 21.7717 255.203 21.7717 254.75ZM35.2732 254.03V254.54H31.6332V257.7H31.0332V254.54H27.4232V254.03H35.2732ZM27.9232 252.71C28.3965 252.637 28.8732 252.48 29.3532 252.24C29.8332 252 30.2298 251.707 30.5432 251.36C30.8565 251.007 31.0132 250.633 31.0132 250.24V250.1H28.1732V249.6H34.4932V250.1H31.6732V250.24C31.6732 250.633 31.8298 251.007 32.1432 251.36C32.4565 251.707 32.8532 252 33.3332 252.24C33.8132 252.48 34.2898 252.637 34.7632 252.71L34.5232 253.21C33.8498 253.083 33.2098 252.833 32.6032 252.46C32.0032 252.087 31.5832 251.64 31.3432 251.12C31.1032 251.64 30.6798 252.087 30.0732 252.46C29.4732 252.833 28.8365 253.083 28.1632 253.21L27.9232 252.71ZM44.9481 251.47V249.02H45.5581V255.39H44.9481V251.98H43.0481V251.47H44.9481ZM38.5181 253.74C38.9314 253.587 39.3081 253.363 39.6481 253.07C39.9881 252.777 40.2581 252.437 40.4581 252.05C40.6581 251.663 40.7581 251.26 40.7581 250.84V250.27H38.7281V249.76H43.3581V250.27H41.3681V250.83C41.3681 251.21 41.4614 251.58 41.6481 251.94C41.8414 252.3 42.1014 252.62 42.4281 252.9C42.7614 253.18 43.1281 253.39 43.5281 253.53L43.2181 254.01C42.7248 253.823 42.2881 253.55 41.9081 253.19C41.5348 252.823 41.2581 252.407 41.0781 251.94C40.8981 252.46 40.6081 252.923 40.2081 253.33C39.8148 253.73 39.3581 254.03 38.8381 254.23L38.5181 253.74ZM40.0881 254.82H40.6881V256.98H45.8181V257.49H40.0881V254.82Z" fill="black"/>
<path d="M72.1317 253.48L72.3517 249.77H75.9317V250.31H72.9317L72.7817 252.78C72.9817 252.66 73.1917 252.567 73.4117 252.5C73.6383 252.427 73.855 252.39 74.0617 252.39C74.5217 252.39 74.9317 252.49 75.2917 252.69C75.6517 252.883 75.9317 253.157 76.1317 253.51C76.3383 253.863 76.4417 254.263 76.4417 254.71C76.4417 255.17 76.3383 255.58 76.1317 255.94C75.9317 256.3 75.6517 256.583 75.2917 256.79C74.9317 256.99 74.5217 257.09 74.0617 257.09C73.515 257.09 73.0283 256.923 72.6017 256.59C72.175 256.257 71.8983 255.83 71.7717 255.31L72.3617 255.17C72.455 255.57 72.6583 255.897 72.9717 256.15C73.285 256.397 73.6483 256.52 74.0617 256.52C74.4017 256.52 74.705 256.443 74.9717 256.29C75.245 256.137 75.4583 255.923 75.6117 255.65C75.765 255.37 75.8417 255.057 75.8417 254.71C75.8417 254.37 75.765 254.067 75.6117 253.8C75.4583 253.533 75.245 253.327 74.9717 253.18C74.705 253.027 74.4017 252.95 74.0617 252.95C73.8283 252.95 73.5883 253.01 73.3417 253.13C73.095 253.243 72.8917 253.393 72.7317 253.58L72.1317 253.48ZM85.2732 254.03V254.54H81.6332V257.7H81.0332V254.54H77.4232V254.03H85.2732ZM77.9232 252.71C78.3965 252.637 78.8732 252.48 79.3532 252.24C79.8332 252 80.2298 251.707 80.5432 251.36C80.8565 251.007 81.0132 250.633 81.0132 250.24V250.1H78.1732V249.6H84.4932V250.1H81.6732V250.24C81.6732 250.633 81.8298 251.007 82.1432 251.36C82.4565 251.707 82.8532 252 83.3332 252.24C83.8132 252.48 84.2898 252.637 84.7632 252.71L84.5232 253.21C83.8498 253.083 83.2098 252.833 82.6032 252.46C82.0032 252.087 81.5832 251.64 81.3432 251.12C81.1032 251.64 80.6798 252.087 80.0732 252.46C79.4732 252.833 78.8365 253.083 78.1632 253.21L77.9232 252.71ZM94.9481 251.47V249.02H95.5581V255.39H94.9481V251.98H93.0481V251.47H94.9481ZM88.5181 253.74C88.9314 253.587 89.3081 253.363 89.6481 253.07C89.9881 252.777 90.2581 252.437 90.4581 252.05C90.6581 251.663 90.7581 251.26 90.7581 250.84V250.27H88.7281V249.76H93.3581V250.27H91.3681V250.83C91.3681 251.21 91.4614 251.58 91.6481 251.94C91.8414 252.3 92.1014 252.62 92.4281 252.9C92.7614 253.18 93.1281 253.39 93.5281 253.53L93.2181 254.01C92.7248 253.823 92.2881 253.55 91.9081 253.19C91.5348 252.823 91.2581 252.407 91.0781 251.94C90.8981 252.46 90.6081 252.923 90.2081 253.33C89.8148 253.73 89.3581 254.03 88.8381 254.23L88.5181 253.74ZM90.0881 254.82H90.6881V256.98H95.8181V257.49H90.0881V254.82Z" fill="black"/>
<path d="M125.496 254.39H126.626V254.92H125.496V257H124.896V254.92H121.676L121.596 254.38L124.916 249.78H125.496V254.39ZM124.896 254.39V250.83L122.326 254.39H124.896ZM135.449 254.03V254.54H131.809V257.7H131.209V254.54H127.599V254.03H135.449ZM128.099 252.71C128.572 252.637 129.049 252.48 129.529 252.24C130.009 252 130.406 251.707 130.719 251.36C131.032 251.007 131.189 250.633 131.189 250.24V250.1H128.349V249.6H134.669V250.1H131.849V250.24C131.849 250.633 132.006 251.007 132.319 251.36C132.632 251.707 133.029 252 133.509 252.24C133.989 252.48 134.466 252.637 134.939 252.71L134.699 253.21C134.026 253.083 133.386 252.833 132.779 252.46C132.179 252.087 131.759 251.64 131.519 251.12C131.279 251.64 130.856 252.087 130.249 252.46C129.649 252.833 129.012 253.083 128.339 253.21L128.099 252.71ZM145.124 251.47V249.02H145.734V255.39H145.124V251.98H143.224V251.47H145.124ZM138.694 253.74C139.107 253.587 139.484 253.363 139.824 253.07C140.164 252.777 140.434 252.437 140.634 252.05C140.834 251.663 140.934 251.26 140.934 250.84V250.27H138.904V249.76H143.534V250.27H141.544V250.83C141.544 251.21 141.637 251.58 141.824 251.94C142.017 252.3 142.277 252.62 142.604 252.9C142.937 253.18 143.304 253.39 143.704 253.53L143.394 254.01C142.901 253.823 142.464 253.55 142.084 253.19C141.711 252.823 141.434 252.407 141.254 251.94C141.074 252.46 140.784 252.923 140.384 253.33C139.991 253.73 139.534 254.03 139.014 254.23L138.694 253.74ZM140.264 254.82H140.864V256.98H145.994V257.49H140.264V254.82Z" fill="black"/>
<path d="M175.281 253.27C175.614 253.43 175.884 253.667 176.091 253.98C176.297 254.293 176.401 254.62 176.401 254.96C176.401 255.367 176.301 255.73 176.101 256.05C175.907 256.363 175.637 256.61 175.291 256.79C174.944 256.97 174.547 257.06 174.101 257.06C173.654 257.06 173.257 256.97 172.911 256.79C172.564 256.61 172.294 256.363 172.101 256.05C171.907 255.73 171.811 255.367 171.811 254.96H172.411C172.411 255.42 172.567 255.797 172.881 256.09C173.201 256.383 173.607 256.53 174.101 256.53C174.601 256.53 175.007 256.387 175.321 256.1C175.641 255.813 175.801 255.447 175.801 255C175.801 254.573 175.644 254.223 175.331 253.95C175.017 253.677 174.614 253.54 174.121 253.54H173.711V252.99H174.121C174.581 252.99 174.957 252.863 175.251 252.61C175.551 252.357 175.701 252.03 175.701 251.63C175.701 251.223 175.554 250.89 175.261 250.63C174.974 250.37 174.607 250.24 174.161 250.24C173.701 250.24 173.324 250.377 173.031 250.65C172.744 250.917 172.601 251.26 172.601 251.68H172.001C172.001 251.3 172.091 250.96 172.271 250.66C172.457 250.36 172.714 250.127 173.041 249.96C173.367 249.793 173.741 249.71 174.161 249.71C174.574 249.71 174.941 249.793 175.261 249.96C175.587 250.127 175.841 250.36 176.021 250.66C176.207 250.96 176.301 251.3 176.301 251.68C176.301 251.98 176.207 252.277 176.021 252.57C175.841 252.863 175.594 253.097 175.281 253.27ZM185.234 254.03V254.54H181.594V257.7H180.994V254.54H177.384V254.03H185.234ZM177.884 252.71C178.357 252.637 178.834 252.48 179.314 252.24C179.794 252 180.191 251.707 180.504 251.36C180.817 251.007 180.974 250.633 180.974 250.24V250.1H178.134V249.6H184.454V250.1H181.634V250.24C181.634 250.633 181.791 251.007 182.104 251.36C182.417 251.707 182.814 252 183.294 252.24C183.774 252.48 184.251 252.637 184.724 252.71L184.484 253.21C183.811 253.083 183.171 252.833 182.564 252.46C181.964 252.087 181.544 251.64 181.304 251.12C181.064 251.64 180.641 252.087 180.034 252.46C179.434 252.833 178.797 253.083 178.124 253.21L177.884 252.71ZM194.909 251.47V249.02H195.519V255.39H194.909V251.98H193.009V251.47H194.909ZM188.479 253.74C188.892 253.587 189.269 253.363 189.609 253.07C189.949 252.777 190.219 252.437 190.419 252.05C190.619 251.663 190.719 251.26 190.719 250.84V250.27H188.689V249.76H193.319V250.27H191.329V250.83C191.329 251.21 191.422 251.58 191.609 251.94C191.802 252.3 192.062 252.62 192.389 252.9C192.722 253.18 193.089 253.39 193.489 253.53L193.179 254.01C192.686 253.823 192.249 253.55 191.869 253.19C191.496 252.823 191.219 252.407 191.039 251.94C190.859 252.46 190.569 252.923 190.169 253.33C189.776 253.73 189.319 254.03 188.799 254.23L188.479 253.74ZM190.049 254.82H190.649V256.98H195.779V257.49H190.049V254.82Z" fill="black"/>
<path d="M221.933 256.47C222.113 256.29 222.41 256.007 222.823 255.62C223.417 255.06 223.897 254.59 224.263 254.21C224.63 253.83 224.943 253.44 225.203 253.04C225.463 252.633 225.593 252.257 225.593 251.91C225.593 251.417 225.453 251.013 225.173 250.7C224.9 250.387 224.54 250.23 224.093 250.23C223.78 250.23 223.473 250.34 223.173 250.56C222.88 250.773 222.66 251.053 222.513 251.4L221.963 251.17C222.15 250.737 222.44 250.383 222.833 250.11C223.233 249.837 223.653 249.7 224.093 249.7C224.5 249.7 224.863 249.793 225.183 249.98C225.503 250.167 225.75 250.43 225.923 250.77C226.103 251.103 226.193 251.483 226.193 251.91C226.193 252.33 226.057 252.767 225.783 253.22C225.51 253.667 225.18 254.09 224.793 254.49C224.413 254.89 223.917 255.377 223.303 255.95L222.743 256.47H226.303V257.01H222.023L221.933 256.47ZM235.132 254.03V254.54H231.492V257.7H230.892V254.54H227.282V254.03H235.132ZM227.782 252.71C228.255 252.637 228.732 252.48 229.212 252.24C229.692 252 230.088 251.707 230.402 251.36C230.715 251.007 230.872 250.633 230.872 250.24V250.1H228.032V249.6H234.352V250.1H231.532V250.24C231.532 250.633 231.688 251.007 232.002 251.36C232.315 251.707 232.712 252 233.192 252.24C233.672 252.48 234.148 252.637 234.622 252.71L234.382 253.21C233.708 253.083 233.068 252.833 232.462 252.46C231.862 252.087 231.442 251.64 231.202 251.12C230.962 251.64 230.538 252.087 229.932 252.46C229.332 252.833 228.695 253.083 228.022 253.21L227.782 252.71ZM244.806 251.47V249.02H245.416V255.39H244.806V251.98H242.906V251.47H244.806ZM238.376 253.74C238.79 253.587 239.166 253.363 239.506 253.07C239.846 252.777 240.116 252.437 240.316 252.05C240.516 251.663 240.616 251.26 240.616 250.84V250.27H238.586V249.76H243.216V250.27H241.226V250.83C241.226 251.21 241.32 251.58 241.506 251.94C241.7 252.3 241.96 252.62 242.286 252.9C242.62 253.18 242.986 253.39 243.386 253.53L243.076 254.01C242.583 253.823 242.146 253.55 241.766 253.19C241.393 252.823 241.116 252.407 240.936 251.94C240.756 252.46 240.466 252.923 240.066 253.33C239.673 253.73 239.216 254.03 238.696 254.23L238.376 253.74ZM239.946 254.82H240.546V256.98H245.676V257.49H239.946V254.82Z" fill="black"/>
<path d="M273.804 257H273.204V250.47L272.204 251.17L271.864 250.71L273.204 249.79H273.804V257ZM283.101 254.03V254.54H279.461V257.7H278.861V254.54H275.251V254.03H283.101ZM275.751 252.71C276.225 252.637 276.701 252.48 277.181 252.24C277.661 252 278.058 251.707 278.371 251.36C278.685 251.007 278.841 250.633 278.841 250.24V250.1H276.001V249.6H282.321V250.1H279.501V250.24C279.501 250.633 279.658 251.007 279.971 251.36C280.285 251.707 280.681 252 281.161 252.24C281.641 252.48 282.118 252.637 282.591 252.71L282.351 253.21C281.678 253.083 281.038 252.833 280.431 252.46C279.831 252.087 279.411 251.64 279.171 251.12C278.931 251.64 278.508 252.087 277.901 252.46C277.301 252.833 276.665 253.083 275.991 253.21L275.751 252.71ZM292.776 251.47V249.02H293.386V255.39H292.776V251.98H290.876V251.47H292.776ZM286.346 253.74C286.76 253.587 287.136 253.363 287.476 253.07C287.816 252.777 288.086 252.437 288.286 252.05C288.486 251.663 288.586 251.26 288.586 250.84V250.27H286.556V249.76H291.186V250.27H289.196V250.83C289.196 251.21 289.29 251.58 289.476 251.94C289.67 252.3 289.93 252.62 290.256 252.9C290.59 253.18 290.956 253.39 291.356 253.53L291.046 254.01C290.553 253.823 290.116 253.55 289.736 253.19C289.363 252.823 289.086 252.407 288.906 251.94C288.726 252.46 288.436 252.923 288.036 253.33C287.643 253.73 287.186 254.03 286.666 254.23L286.346 253.74ZM287.916 254.82H288.516V256.98H293.646V257.49H287.916V254.82Z" fill="black"/>
<path d="M326.717 249V257.71H326.117V249H326.717ZM320.007 252.7C320.007 252.1 320.097 251.573 320.277 251.12C320.464 250.667 320.721 250.32 321.047 250.08C321.381 249.833 321.761 249.71 322.187 249.71C322.607 249.71 322.981 249.833 323.307 250.08C323.641 250.32 323.897 250.667 324.077 251.12C324.264 251.573 324.357 252.1 324.357 252.7C324.357 253.3 324.264 253.83 324.077 254.29C323.897 254.743 323.641 255.093 323.307 255.34C322.981 255.587 322.607 255.71 322.187 255.71C321.761 255.71 321.381 255.587 321.047 255.34C320.721 255.093 320.464 254.743 320.277 254.29C320.097 253.83 320.007 253.3 320.007 252.7ZM320.597 252.7C320.597 253.18 320.664 253.607 320.797 253.98C320.931 254.353 321.117 254.647 321.357 254.86C321.604 255.067 321.881 255.17 322.187 255.17C322.494 255.17 322.764 255.067 322.997 254.86C323.237 254.647 323.424 254.353 323.557 253.98C323.697 253.607 323.767 253.18 323.767 252.7C323.767 252.22 323.697 251.797 323.557 251.43C323.424 251.057 323.237 250.767 322.997 250.56C322.764 250.347 322.494 250.24 322.187 250.24C321.881 250.24 321.604 250.343 321.357 250.55C321.117 250.757 320.931 251.047 320.797 251.42C320.664 251.793 320.597 252.22 320.597 252.7ZM335.498 249.02V255.45H334.888V252.03H332.708V253.92H328.858V249.59H329.458V251.21H332.108V249.59H332.708V251.52H334.888V249.02H335.498ZM332.108 253.41V251.7H329.458V253.41H332.108ZM329.988 254.83H330.588V256.98H335.708V257.49H329.988V254.83ZM347.302 254.03V254.54H343.662V257.7H343.062V254.54H339.452V254.03H347.302ZM339.952 252.71C340.426 252.637 340.902 252.48 341.382 252.24C341.862 252 342.259 251.707 342.572 251.36C342.886 251.007 343.042 250.633 343.042 250.24V250.1H340.202V249.6H346.522V250.1H343.702V250.24C343.702 250.633 343.859 251.007 344.172 251.36C344.486 251.707 344.882 252 345.362 252.24C345.842 252.48 346.319 252.637 346.792 252.71L346.552 253.21C345.879 253.083 345.239 252.833 344.632 252.46C344.032 252.087 343.612 251.64 343.372 251.12C343.132 251.64 342.709 252.087 342.102 252.46C341.502 252.833 340.866 253.083 340.192 253.21L339.952 252.71Z" fill="black"/>
<path d="M31 162.286L81.6667 157.429L132.333 138L183 128.286L233.667 155L284.333 172L335 169.571" stroke="#4C95ED" stroke-width="2" stroke-linejoin="round"/>
<path d="M31 172L81.6667 162.286L132.333 142.857L183 135.571L233.667 130.714L284.333 176.857H335" stroke="#BCC5CF" stroke-width="2" stroke-linejoin="round"/>
</g>
<rect x="1" y="1" width="359" height="273" rx="15" stroke="#EAEBED" stroke-width="2"/>
<defs>
<clipPath id="clip0_1_1457">
<rect width="329" height="35" fill="white" transform="translate(16 16)"/>
</clipPath>
<clipPath id="clip1_1_1457">
<rect width="335" height="208" fill="white" transform="translate(13 51)"/>
</clipPath>
</defs>
</svg>
