<svg width="361" height="604" viewBox="0 0 361 604" fill="none" xmlns="http://www.w3.org/2000/svg">
<rect x="1" y="1" width="359" height="602" rx="15" fill="white"/>
<path d="M25.072 37.144V32.224H27.712V37.144H36.16V39.304H16.816V37.144H25.072ZM17.392 30.544C18.832 30.304 20.128 29.824 21.28 29.104C22.448 28.384 23.36 27.52 24.016 26.512C24.672 25.504 25 24.472 25 23.416V21.832H27.784V23.416C27.784 24.488 28.112 25.528 28.768 26.536C29.424 27.544 30.336 28.408 31.504 29.128C32.672 29.832 33.976 30.304 35.416 30.544L34.288 32.776C32.496 32.424 30.904 31.76 29.512 30.784C28.136 29.792 27.096 28.6 26.392 27.208C25.688 28.6 24.632 29.792 23.224 30.784C21.832 31.76 20.248 32.424 18.472 32.776L17.392 30.544ZM55.4086 20.536V41.968H52.7686V20.536H55.4086ZM38.8966 22.312H41.5126V27.664H46.6246V22.312H49.2166V36.904H38.8966V22.312ZM46.6246 34.792V29.728H41.5126V34.792H46.6246ZM82.5404 20.584V41.944H80.0204V31.072H77.9564V40.864H75.4844V20.992H77.9564V28.936H80.0204V20.584H82.5404ZM64.0604 34.768C64.8764 34.768 65.5164 34.76 65.9804 34.744V25.192H64.4444V23.08H74.2604V25.192H72.7244V34.456C73.2204 34.424 73.8124 34.36 74.5004 34.264L74.6684 36.16C72.2524 36.672 68.8124 36.928 64.3484 36.928L64.0604 34.768ZM70.3484 34.624V25.192H68.3564V34.696L70.3484 34.624ZM100.373 26.44V20.56H103.013V36.376H100.373V28.552H96.6289V26.44H100.373ZM86.2849 22.192H95.9569V24.328H88.9249V26.656H95.2849V28.72H88.9249V31.192C90.7009 31.176 92.1649 31.136 93.3169 31.072C94.4689 30.992 95.6289 30.856 96.7969 30.664L97.0369 32.752C95.7249 32.992 94.4129 33.152 93.1009 33.232C91.7889 33.312 90.0609 33.352 87.9169 33.352H86.2849V22.192ZM89.0929 35.032H91.7089V39.4H103.541V41.512H89.0929V35.032Z" fill="black"/>
<g clip-path="url(#clip0_1_1503)">
<path d="M19.504 76.128V72.496C18.928 72.1653 18.4853 71.7493 18.176 71.248C17.8667 70.7467 17.712 70.1867 17.712 69.568C17.712 68.8213 17.936 68.1653 18.384 67.6C18.8427 67.024 19.4667 66.5813 20.256 66.272C21.056 65.9627 21.9627 65.808 22.976 65.808C23.9893 65.808 24.896 65.9627 25.696 66.272C26.496 66.5813 27.12 67.024 27.568 67.6C28.016 68.1653 28.24 68.8213 28.24 69.568C28.24 70.1867 28.0853 70.7467 27.776 71.248C27.4667 71.7493 27.0293 72.1653 26.464 72.496V76.128H29.44V77.552H16.544V76.128H19.504ZM19.44 69.568C19.44 70.304 19.76 70.8853 20.4 71.312C21.0507 71.7387 21.9093 71.952 22.976 71.952C24.0427 71.952 24.896 71.7387 25.536 71.312C26.1867 70.8853 26.512 70.304 26.512 69.568C26.512 68.8427 26.1867 68.2667 25.536 67.84C24.8853 67.4027 24.032 67.184 22.976 67.184C21.92 67.184 21.0667 67.4027 20.416 67.84C19.7653 68.2667 19.44 68.8427 19.44 69.568ZM24.704 76.128V73.152C24.1493 73.2693 23.5733 73.328 22.976 73.328C22.3893 73.328 21.8187 73.2693 21.264 73.152V76.128H24.704ZM34.5124 65.504C35.227 65.504 35.8724 65.6427 36.4484 65.92C37.0244 66.1867 37.4724 66.5653 37.7924 67.056C38.123 67.5467 38.2884 68.1013 38.2884 68.72C38.2884 69.3387 38.123 69.8933 37.7924 70.384C37.4724 70.864 37.0244 71.2427 36.4484 71.52C35.8724 71.7867 35.227 71.92 34.5124 71.92C33.8084 71.92 33.1684 71.7867 32.5924 71.52C32.027 71.2427 31.579 70.864 31.2484 70.384C30.9284 69.8933 30.7684 69.3387 30.7684 68.72C30.7684 68.1013 30.9284 67.5467 31.2484 67.056C31.579 66.5653 32.027 66.1867 32.5924 65.92C33.1684 65.6427 33.8084 65.504 34.5124 65.504ZM32.4644 68.72C32.4644 69.264 32.6564 69.696 33.0404 70.016C33.4244 70.336 33.915 70.496 34.5124 70.496C35.1204 70.496 35.6164 70.336 36.0004 70.016C36.3844 69.696 36.5764 69.264 36.5764 68.72C36.5764 68.176 36.3844 67.744 36.0004 67.424C35.6164 67.0933 35.1204 66.928 34.5124 66.928C33.915 66.928 33.4244 67.0933 33.0404 67.424C32.6564 67.744 32.4644 68.176 32.4644 68.72ZM32.9124 72.864H42.2884V76.592H34.6564V77.744H42.6884V79.12H32.9444V75.312H40.5444V74.224H32.9124V72.864ZM40.5284 65.056H42.2884V72.24H40.5284V65.056ZM56.3368 65.056V72.4H54.5928V70.864H51.7608V71.936H45.1528V65.664H46.8968V67.456H50.0328V65.664H51.7608V66.928H54.5928V65.056H56.3368ZM50.0328 70.56V68.8H46.8968V70.56H50.0328ZM47.0248 73.008H56.3368V76.64H48.7848V77.744H56.7848V79.12H47.0568V75.36H54.6088V74.368H47.0248V73.008ZM54.5928 69.52V68.272H51.7608V69.52H54.5928ZM70.6006 66.448V67.904H67.4966V69.088C67.4966 69.8773 67.6406 70.656 67.9286 71.424C68.2273 72.1813 68.6486 72.864 69.1926 73.472C69.7473 74.08 70.3926 74.5387 71.1286 74.848L70.1526 76.24C69.342 75.8773 68.6326 75.3493 68.0246 74.656C67.4273 73.952 66.9633 73.136 66.6326 72.208C66.302 73.2107 65.8326 74.096 65.2246 74.864C64.6166 75.632 63.9073 76.208 63.0966 76.592L62.0886 75.2C62.8246 74.8587 63.4646 74.368 64.0086 73.728C64.5633 73.0773 64.9846 72.3467 65.2726 71.536C65.5713 70.7253 65.7206 69.9093 65.7206 69.088V67.904H62.6166V66.448H70.6006ZM72.1526 65.056H73.9126V79.296H72.1526V65.056ZM89.017 71.2V72.496H83.465V73.536H87.433V76.896H79.417V77.872H87.833V79.168H77.705V75.696H85.705V74.816H77.657V73.536H81.705V72.496H76.185V71.2H89.017ZM76.745 69.408C78.1103 69.3547 79.209 69.1573 80.041 68.816C80.873 68.464 81.3797 68.0267 81.561 67.504H77.433V66.208H81.705V65.008H83.481V66.208H87.769V67.504H83.625C83.8063 68.0267 84.313 68.464 85.145 68.816C85.977 69.1573 87.0757 69.3547 88.441 69.408L87.945 70.736C86.6543 70.6507 85.5503 70.4427 84.633 70.112C83.7263 69.7707 83.049 69.3173 82.601 68.752C82.153 69.3173 81.4703 69.7707 80.553 70.112C79.6357 70.4427 78.5317 70.6507 77.241 70.736L76.745 69.408ZM106.721 72.432V73.824H101.297V76.272H99.5369V73.824H93.8249V72.432H106.721ZM95.3769 75.12H97.1209V77.6H105.297V79.024H95.3769V75.12ZM95.5049 65.488H97.2489V67.088H103.297V65.488H105.057V71.296H95.5049V65.488ZM103.297 69.904V68.416H97.2489V69.904H103.297ZM117.873 67.824V65.056H119.633V73.504H117.873V69.264H115.089V67.824H117.873ZM107.761 71.872C108.86 71.488 109.703 70.8747 110.289 70.032C110.887 69.1787 111.185 68.224 111.185 67.168V65.776H112.945V67.264C112.945 68.224 113.228 69.104 113.793 69.904C114.369 70.6933 115.185 71.264 116.241 71.616L115.313 72.992C114.567 72.7253 113.916 72.336 113.361 71.824C112.817 71.3013 112.391 70.6933 112.081 70C111.761 70.768 111.313 71.4347 110.737 72C110.161 72.5547 109.473 72.976 108.673 73.264L107.761 71.872ZM110.017 74.192H119.633V79.296H117.873V75.6H110.017V74.192Z" fill="black"/>
<path d="M26.008 90.34V91.192H21.724V94.912H20.692V91.192H16.456V90.34H26.008ZM17.008 88.66C17.648 88.572 18.244 88.392 18.796 88.12C19.356 87.84 19.804 87.5 20.14 87.1C20.476 86.692 20.644 86.272 20.644 85.84V85.828H17.344V84.988H25.084V85.828H21.808V85.84C21.808 86.272 21.976 86.692 22.312 87.1C22.648 87.5 23.096 87.84 23.656 88.12C24.216 88.392 24.816 88.572 25.456 88.66L25.06 89.5C24.204 89.356 23.428 89.076 22.732 88.66C22.044 88.236 21.544 87.72 21.232 87.112C20.912 87.72 20.408 88.236 19.72 88.66C19.032 89.076 18.26 89.356 17.404 89.5L17.008 88.66ZM35.1643 84.352V86.584H36.6883V87.448H35.1643V89.704H34.1203V84.352H35.1643ZM27.3763 84.928H32.2483V89.176H27.3763V84.928ZM31.2403 88.348V85.744H28.3963V88.348H31.2403ZM28.4203 90.196H35.1643V92.824H29.4763V93.928H35.5363V94.768H28.4443V92.044H34.1443V91.012H28.4203V90.196ZM46.4086 84.34V94.9H45.4126V84.34H46.4086ZM37.5526 88.9C37.5526 88.148 37.6446 87.496 37.8286 86.944C38.0126 86.384 38.2726 85.956 38.6086 85.66C38.9526 85.356 39.3486 85.204 39.7966 85.204C40.4366 85.204 40.9566 85.492 41.3566 86.068C41.7566 86.636 41.9886 87.42 42.0526 88.42H43.3126V84.568H44.2966V94.372H43.3126V89.272H42.0526C42.0126 90.304 41.7886 91.12 41.3806 91.72C40.9806 92.312 40.4526 92.608 39.7966 92.608C39.3486 92.608 38.9526 92.46 38.6086 92.164C38.2726 91.86 38.0126 91.428 37.8286 90.868C37.6446 90.308 37.5526 89.652 37.5526 88.9ZM38.5006 88.9C38.5006 89.748 38.6166 90.416 38.8486 90.904C39.0806 91.392 39.3966 91.636 39.7966 91.636C40.2046 91.636 40.5246 91.396 40.7566 90.916C40.9886 90.428 41.1046 89.756 41.1046 88.9C41.1046 88.052 40.9886 87.388 40.7566 86.908C40.5246 86.42 40.2046 86.176 39.7966 86.176C39.3966 86.176 39.0806 86.42 38.8486 86.908C38.6166 87.388 38.5006 88.052 38.5006 88.9ZM50.2248 84.724V87.472H56.3928V88.312H49.1928V84.724H50.2248ZM47.9208 89.692H57.4848V90.532H47.9208V89.692ZM49.1328 91.552H50.1528V93.808H56.4528V94.66H49.1328V91.552ZM67.4028 85.42V86.284H64.9668V87.52C64.9668 88.104 65.0908 88.684 65.3388 89.26C65.5868 89.836 65.9228 90.348 66.3468 90.796C66.7708 91.236 67.2428 91.568 67.7628 91.792L67.1748 92.62C66.5668 92.34 66.0228 91.92 65.5428 91.36C65.0708 90.8 64.7108 90.164 64.4628 89.452C64.2148 90.22 63.8508 90.912 63.3708 91.528C62.8988 92.136 62.3588 92.588 61.7508 92.884L61.1508 92.056C61.6628 91.816 62.1308 91.456 62.5548 90.976C62.9788 90.488 63.3108 89.94 63.5508 89.332C63.7988 88.724 63.9228 88.12 63.9228 87.52V86.284H61.4988V85.42H67.4028ZM68.7708 84.352H69.8148V94.912H68.7708V84.352ZM81.191 89.008V89.788H76.943V90.712H79.979V93.064H73.847V94.012H80.303V94.792H72.839V92.332H78.971V91.492H72.803V90.712H75.899V89.788H71.675V89.008H81.191ZM72.155 87.76C73.163 87.712 74.003 87.532 74.675 87.22C75.355 86.908 75.743 86.516 75.839 86.044H72.635V85.252H75.911V84.292H76.955V85.252H80.243V86.044H77.027C77.123 86.516 77.507 86.908 78.179 87.22C78.859 87.532 79.703 87.712 80.711 87.76L80.411 88.564C79.483 88.492 78.667 88.32 77.963 88.048C77.267 87.768 76.759 87.4 76.439 86.944C76.119 87.4 75.607 87.768 74.903 88.048C74.199 88.32 73.383 88.492 72.455 88.564L72.155 87.76ZM86.9153 84.532C88.0993 84.532 89.0153 84.688 89.6633 85C90.3193 85.312 90.6473 85.76 90.6473 86.344C90.6473 86.936 90.3193 87.392 89.6633 87.712C89.0073 88.024 88.0913 88.18 86.9153 88.18C85.7393 88.18 84.8233 88.024 84.1673 87.712C83.5113 87.392 83.1833 86.936 83.1833 86.344C83.1833 85.76 83.5113 85.312 84.1673 85C84.8233 84.688 85.7393 84.532 86.9153 84.532ZM82.1513 88.852H91.6913V89.692H82.1513V88.852ZM83.2913 90.544H90.4673V92.968H84.3353V93.988H90.7913V94.792H83.3273V92.224H89.4593V91.348H83.2913V90.544ZM84.2633 86.344C84.2633 86.688 84.4913 86.952 84.9473 87.136C85.4113 87.312 86.0673 87.4 86.9153 87.4C87.7633 87.4 88.4193 87.312 88.8833 87.136C89.3473 86.952 89.5793 86.688 89.5793 86.344C89.5793 86.016 89.3473 85.76 88.8833 85.576C88.4193 85.392 87.7633 85.3 86.9153 85.3C86.0673 85.3 85.4113 85.392 84.9473 85.576C84.4913 85.76 84.2633 86.016 84.2633 86.344ZM98.9812 84.7V85.504C98.9812 86.2 99.2132 86.832 99.6772 87.4C100.141 87.968 100.765 88.376 101.549 88.624L101.009 89.428C100.425 89.228 99.9172 88.94 99.4852 88.564C99.0612 88.18 98.7332 87.728 98.5012 87.208C98.2772 87.8 97.9372 88.316 97.4812 88.756C97.0252 89.196 96.4812 89.528 95.8492 89.752L95.3332 88.9C96.1412 88.644 96.7772 88.212 97.2412 87.604C97.7132 86.988 97.9492 86.292 97.9492 85.516V84.7H98.9812ZM96.8692 90.316H103.613V92.896H97.9252V93.964H103.985V94.792H96.8932V92.116H102.593V91.132H96.8692V90.316ZM102.569 84.352H103.613V86.62H105.149V87.472H103.613V89.836H102.569V84.352ZM114.33 84.352V87.076H115.626V87.94H114.33V90.688H113.298V84.352H114.33ZM105.774 89.476C106.326 89.18 106.738 88.744 107.01 88.168C107.29 87.592 107.43 87.012 107.43 86.428V85.972H106.134V85.12H109.134V85.972H108.414V86.428C108.414 86.892 108.486 87.372 108.63 87.868C108.774 88.364 109.014 88.796 109.35 89.164C109.686 88.804 109.922 88.38 110.058 87.892C110.202 87.396 110.274 86.908 110.274 86.428V85.972H109.566V85.12H112.506V85.972H111.246V86.428C111.246 87.02 111.386 87.604 111.666 88.18C111.946 88.756 112.362 89.188 112.914 89.476L112.362 90.232C111.618 89.832 111.09 89.164 110.778 88.228C110.506 89.212 110.03 89.916 109.35 90.34C108.662 89.916 108.182 89.208 107.91 88.216C107.59 89.168 107.066 89.84 106.338 90.232L105.774 89.476ZM107.226 91.168H114.33V94.912H113.298V92.008H107.226V91.168ZM128.687 88.72V89.56H124.427V90.556H127.463V93.016H121.331V93.988H127.787V94.792H120.323V92.272H126.455V91.348H120.287V90.556H123.383V89.56H119.147V88.72H128.687ZM119.639 87.448C120.271 87.4 120.851 87.288 121.379 87.112C121.915 86.928 122.351 86.7 122.687 86.428C123.031 86.148 123.235 85.848 123.299 85.528H120.023V84.688H127.823V85.528H124.535C124.599 85.848 124.799 86.148 125.135 86.428C125.479 86.7 125.919 86.928 126.455 87.112C126.991 87.288 127.571 87.4 128.195 87.448L127.859 88.24C126.955 88.152 126.151 87.948 125.447 87.628C124.743 87.308 124.235 86.9 123.923 86.404C123.611 86.9 123.099 87.308 122.387 87.628C121.683 87.948 120.879 88.152 119.975 88.24L119.639 87.448ZM132.456 85.144C132.936 85.144 133.364 85.28 133.74 85.552C134.124 85.816 134.432 86.192 134.664 86.68H137.316V84.328H138.336V94.924H137.316V90.856H134.736C134.504 91.392 134.192 91.808 133.8 92.104C133.408 92.392 132.96 92.536 132.456 92.536C131.944 92.536 131.488 92.384 131.088 92.08C130.688 91.776 130.376 91.348 130.152 90.796C129.928 90.236 129.816 89.584 129.816 88.84C129.816 88.096 129.928 87.444 130.152 86.884C130.376 86.324 130.688 85.896 131.088 85.6C131.488 85.296 131.944 85.144 132.456 85.144ZM130.8 88.84C130.8 89.4 130.868 89.888 131.004 90.304C131.148 90.72 131.344 91.044 131.592 91.276C131.84 91.5 132.128 91.612 132.456 91.612C132.784 91.612 133.072 91.5 133.32 91.276C133.576 91.044 133.772 90.72 133.908 90.304C134.052 89.88 134.124 89.392 134.124 88.84C134.124 88.288 134.052 87.804 133.908 87.388C133.772 86.964 133.576 86.64 133.32 86.416C133.072 86.192 132.784 86.08 132.456 86.08C132.128 86.08 131.84 86.192 131.592 86.416C131.344 86.64 131.148 86.96 131.004 87.376C130.868 87.792 130.8 88.28 130.8 88.84ZM134.952 87.532C135.048 87.924 135.096 88.36 135.096 88.84C135.096 89.256 135.06 89.644 134.988 90.004H137.316V87.532H134.952ZM141.72 85.216V86.764H144.912V85.216H145.944V89.98H143.844V91.84C144.908 91.784 145.82 91.704 146.58 91.6L146.664 92.368C145.112 92.632 143.152 92.764 140.784 92.764H140.16L140.004 91.9C141.204 91.9 142.136 91.892 142.8 91.876V89.98H140.7V85.216H141.72ZM144.912 89.14V87.58H141.72V89.14H144.912ZM147.228 84.34H148.248V88.744H149.892V89.62H148.248V94.9H147.228V84.34ZM152.928 92.704V89.896C152.48 89.648 152.132 89.34 151.884 88.972C151.644 88.604 151.524 88.184 151.524 87.712C151.524 87.168 151.688 86.692 152.016 86.284C152.344 85.868 152.8 85.548 153.384 85.324C153.968 85.1 154.632 84.988 155.376 84.988C156.128 84.988 156.792 85.1 157.368 85.324C157.952 85.548 158.408 85.868 158.736 86.284C159.064 86.692 159.228 87.168 159.228 87.712C159.228 88.176 159.108 88.592 158.868 88.96C158.628 89.328 158.292 89.632 157.86 89.872V92.704H160.176V93.556H150.612V92.704H152.928ZM152.544 87.712C152.544 88.096 152.664 88.432 152.904 88.72C153.144 89.008 153.476 89.232 153.9 89.392C154.332 89.544 154.824 89.62 155.376 89.62C155.928 89.62 156.42 89.544 156.852 89.392C157.284 89.232 157.62 89.008 157.86 88.72C158.1 88.432 158.22 88.096 158.22 87.712C158.22 87.336 158.1 87.004 157.86 86.716C157.62 86.428 157.284 86.204 156.852 86.044C156.42 85.884 155.928 85.804 155.376 85.804C154.824 85.804 154.332 85.884 153.9 86.044C153.476 86.204 153.144 86.428 152.904 86.716C152.664 87.004 152.544 87.336 152.544 87.712ZM156.816 92.704V90.268C156.368 90.38 155.888 90.436 155.376 90.436C154.904 90.436 154.432 90.384 153.96 90.28V92.704H156.816Z" fill="black"/>
<path d="M304.397 99.328H305.501V102.412H307.025V103.312H305.501V106.984H304.397V99.328ZM297.725 105.16V100.216H302.417V101.116H298.817V104.26C300.869 104.26 302.009 104.188 303.341 103.912L303.461 104.788C302.045 105.076 300.809 105.16 298.565 105.16H297.725ZM298.865 109.696V106.216H299.945V108.796H305.945V109.696H298.865ZM311.177 99.82C312.761 99.82 313.889 100.708 313.889 102.016C313.889 103.3 312.761 104.2 311.177 104.2C309.605 104.2 308.465 103.3 308.465 102.016C308.465 100.708 309.605 99.82 311.177 99.82ZM307.721 105.028C309.653 105.028 312.317 105.016 314.633 104.656L314.705 105.472C313.745 105.652 312.749 105.76 311.777 105.832V109.588H310.673V105.892C309.653 105.94 308.693 105.952 307.853 105.952L307.721 105.028ZM309.509 102.016C309.509 102.784 310.205 103.3 311.177 103.3C312.149 103.3 312.845 102.784 312.845 102.016C312.845 101.224 312.149 100.708 311.177 100.708C310.205 100.708 309.509 101.224 309.509 102.016ZM315.353 109.924V99.328H316.433V109.924H315.353ZM319.529 102.016C319.889 102.016 320.141 102.268 320.141 102.628C320.141 102.988 319.889 103.24 319.529 103.24C319.169 103.24 318.905 102.988 318.905 102.628C318.905 102.268 319.169 102.016 319.529 102.016ZM318.905 106.66C318.905 106.3 319.169 106.048 319.529 106.048C319.889 106.048 320.141 106.3 320.141 106.66C320.141 107.02 319.889 107.284 319.529 107.284C319.169 107.284 318.905 107.02 318.905 106.66ZM324.887 100.264H329.795V105.22H324.887V100.264ZM325.967 104.332H328.727V101.14H325.967V104.332ZM326.075 109.696V106.336H327.167V108.796H333.167V109.696H326.075ZM331.619 107.08V99.328H332.723V102.508H334.235V103.42H332.723V107.08H331.619ZM342.576 99.328H343.668V107.38H342.576V106.336H340.464V105.568H342.576V99.328ZM334.896 104.176C336.84 104.176 339.456 104.152 341.7 103.864L341.772 104.656C340.872 104.8 339.924 104.896 338.988 104.956V107.02H337.896V105.016C336.876 105.064 335.892 105.076 335.04 105.076L334.896 104.176ZM335.712 101.596C335.712 100.48 336.78 99.748 338.328 99.748C339.876 99.748 340.932 100.48 340.932 101.596C340.932 102.724 339.876 103.456 338.328 103.456C336.78 103.456 335.712 102.724 335.712 101.596ZM336.36 109.696V106.6H337.452V108.796H343.92V109.696H336.36ZM336.756 101.596C336.756 102.244 337.404 102.64 338.328 102.64C339.252 102.64 339.888 102.244 339.888 101.596C339.888 100.96 339.252 100.552 338.328 100.552C337.404 100.552 336.756 100.96 336.756 101.596Z" fill="#797979"/>
<g clip-path="url(#clip1_1_1503)">
<path opacity="0.25" d="M34.2778 283.5H345" stroke="#CCCCCC"/>
<path opacity="0.25" d="M34.2778 242.5H345" stroke="#CCCCCC"/>
<path opacity="0.25" d="M34.2778 201.5H345" stroke="#CCCCCC"/>
<path opacity="0.25" d="M34.2778 160.5H345" stroke="#CCCCCC"/>
<path opacity="0.25" d="M34.2778 119.5H345" stroke="#CCCCCC"/>
<path opacity="0.25" d="M34.8153 119V284" stroke="#CCCCCC"/>
<path opacity="0.25" d="M79.0507 119V284" stroke="#CCCCCC"/>
<path opacity="0.25" d="M123.286 119V284" stroke="#CCCCCC"/>
<path opacity="0.25" d="M167.521 119V284" stroke="#CCCCCC"/>
<path opacity="0.25" d="M211.756 119V284" stroke="#CCCCCC"/>
<path opacity="0.25" d="M255.992 119V284" stroke="#CCCCCC"/>
<path opacity="0.25" d="M300.227 119V284" stroke="#CCCCCC"/>
<path opacity="0.25" d="M344.462 119V284" stroke="#CCCCCC"/>
<path d="M19.8619 287.448C20.3019 287.448 20.6939 287.288 21.0379 286.968C21.3899 286.648 21.6619 286.2 21.8539 285.624C22.0459 285.048 22.1419 284.396 22.1419 283.668C22.1419 282.94 22.0459 282.292 21.8539 281.724C21.6619 281.148 21.3899 280.7 21.0379 280.38C20.6939 280.06 20.3019 279.9 19.8619 279.9C19.4219 279.9 19.0259 280.06 18.6739 280.38C18.3299 280.7 18.0579 281.148 17.8579 281.724C17.6659 282.292 17.5699 282.94 17.5699 283.668C17.5699 284.396 17.6659 285.048 17.8579 285.624C18.0579 286.2 18.3299 286.648 18.6739 286.968C19.0259 287.288 19.4219 287.448 19.8619 287.448ZM16.8499 283.668C16.8499 282.82 16.9779 282.064 17.2339 281.4C17.4899 280.728 17.8459 280.204 18.3019 279.828C18.7579 279.452 19.2779 279.264 19.8619 279.264C20.4459 279.264 20.9619 279.452 21.4099 279.828C21.8659 280.204 22.2219 280.728 22.4779 281.4C22.7339 282.064 22.8619 282.82 22.8619 283.668C22.8619 284.524 22.7339 285.288 22.4779 285.96C22.2219 286.624 21.8659 287.144 21.4099 287.52C20.9619 287.896 20.4459 288.084 19.8619 288.084C19.2779 288.084 18.7579 287.896 18.3019 287.52C17.8459 287.144 17.4899 286.624 17.2339 285.96C16.9779 285.288 16.8499 284.524 16.8499 283.668Z" fill="#333333"/>
<path d="M22.3049 247H21.5849V239.164L20.3849 240.004L19.9769 239.452L21.5849 238.348H22.3049V247Z" fill="#333333"/>
<path d="M21.5181 201.524C21.9181 201.716 22.2421 202 22.4901 202.376C22.7381 202.752 22.8621 203.144 22.8621 203.552C22.8621 204.04 22.7421 204.476 22.5021 204.86C22.2701 205.236 21.9461 205.532 21.5301 205.748C21.1141 205.964 20.6381 206.072 20.1021 206.072C19.5661 206.072 19.0901 205.964 18.6741 205.748C18.2581 205.532 17.9341 205.236 17.7021 204.86C17.4701 204.476 17.3541 204.04 17.3541 203.552H18.0741C18.0741 204.104 18.2621 204.556 18.6381 204.908C19.0221 205.26 19.5101 205.436 20.1021 205.436C20.7021 205.436 21.1901 205.264 21.5661 204.92C21.9501 204.576 22.1421 204.136 22.1421 203.6C22.1421 203.088 21.9541 202.668 21.5781 202.34C21.2021 202.012 20.7181 201.848 20.1261 201.848H19.6341V201.188H20.1261C20.6781 201.188 21.1301 201.036 21.4821 200.732C21.8421 200.428 22.0221 200.036 22.0221 199.556C22.0221 199.068 21.8461 198.668 21.4941 198.356C21.1501 198.044 20.7101 197.888 20.1741 197.888C19.6221 197.888 19.1701 198.052 18.8181 198.38C18.4741 198.7 18.3021 199.112 18.3021 199.616H17.5821C17.5821 199.16 17.6901 198.752 17.9061 198.392C18.1301 198.032 18.4381 197.752 18.8301 197.552C19.2221 197.352 19.6701 197.252 20.1741 197.252C20.6701 197.252 21.1101 197.352 21.4941 197.552C21.8861 197.752 22.1901 198.032 22.4061 198.392C22.6301 198.752 22.7421 199.16 22.7421 199.616C22.7421 199.976 22.6301 200.332 22.4061 200.684C22.1901 201.036 21.8941 201.316 21.5181 201.524Z" fill="#333333"/>
<path d="M17.6924 160.776L17.9564 156.324H22.2524V156.972H18.6524L18.4724 159.936C18.7124 159.792 18.9644 159.68 19.2284 159.6C19.5004 159.512 19.7604 159.468 20.0084 159.468C20.5604 159.468 21.0524 159.588 21.4844 159.828C21.9164 160.06 22.2524 160.388 22.4924 160.812C22.7404 161.236 22.8644 161.716 22.8644 162.252C22.8644 162.804 22.7404 163.296 22.4924 163.728C22.2524 164.16 21.9164 164.5 21.4844 164.748C21.0524 164.988 20.5604 165.108 20.0084 165.108C19.3524 165.108 18.7684 164.908 18.2564 164.508C17.7444 164.108 17.4124 163.596 17.2604 162.972L17.9684 162.804C18.0804 163.284 18.3244 163.676 18.7004 163.98C19.0764 164.276 19.5124 164.424 20.0084 164.424C20.4164 164.424 20.7804 164.332 21.1004 164.148C21.4284 163.964 21.6844 163.708 21.8684 163.38C22.0524 163.044 22.1444 162.668 22.1444 162.252C22.1444 161.844 22.0524 161.48 21.8684 161.16C21.6844 160.84 21.4284 160.592 21.1004 160.416C20.7804 160.232 20.4164 160.14 20.0084 160.14C19.7284 160.14 19.4404 160.212 19.1444 160.356C18.8484 160.492 18.6044 160.672 18.4124 160.896L17.6924 160.776Z" fill="#333333"/>
<path d="M18.522 123.988L22.086 115.972H17.85V115.336H22.77L22.866 115.972L19.302 123.988H18.522Z" fill="#333333"/>
<path d="M60.1561 291.412V297.592H59.4361V296.932H57.2641V296.428H59.4361V291.412H60.1561ZM51.6841 295.444C52.9961 295.444 54.2121 295.428 55.3321 295.396C56.4521 295.356 57.5161 295.276 58.5241 295.156L58.5721 295.648C57.5801 295.8 56.5121 295.9 55.3681 295.948V297.64H54.6481V295.984C53.9681 296.008 53.0121 296.02 51.7801 296.02L51.6841 295.444ZM52.5241 293.2C52.5241 292.712 52.7521 292.328 53.2081 292.048C53.6721 291.768 54.2921 291.628 55.0681 291.628C55.8441 291.628 56.4641 291.772 56.9281 292.06C57.3921 292.34 57.6241 292.72 57.6241 293.2C57.6241 293.68 57.3921 294.06 56.9281 294.34C56.4641 294.62 55.8441 294.76 55.0681 294.76C54.2921 294.76 53.6721 294.62 53.2081 294.34C52.7521 294.06 52.5241 293.68 52.5241 293.2ZM53.1961 293.2C53.1961 293.512 53.3681 293.764 53.7121 293.956C54.0561 294.148 54.5081 294.244 55.0681 294.244C55.6281 294.244 56.0801 294.148 56.4241 293.956C56.7681 293.764 56.9401 293.512 56.9401 293.2C56.9401 292.888 56.7681 292.64 56.4241 292.456C56.0881 292.264 55.6361 292.168 55.0681 292.168C54.5081 292.168 54.0561 292.264 53.7121 292.456C53.3681 292.64 53.1961 292.888 53.1961 293.2ZM53.3041 298H60.1561V300.04H54.0481V301.144H60.5641V301.708H53.3401V299.536H59.4481V298.552H53.3041V298Z" fill="#333333"/>
<path d="M104.053 291.412V295.912H105.805V296.548H104.053V301.84H103.333V291.412H104.053ZM96.013 299.116C97.277 299.116 98.261 299.104 98.965 299.08V297.832C98.341 297.776 97.841 297.58 97.465 297.244C97.089 296.908 96.901 296.472 96.901 295.936C96.901 295.36 97.121 294.896 97.561 294.544C98.009 294.192 98.593 294.016 99.313 294.016C100.033 294.016 100.617 294.192 101.065 294.544C101.513 294.896 101.737 295.36 101.737 295.936C101.737 296.464 101.549 296.896 101.173 297.232C100.805 297.568 100.309 297.768 99.685 297.832V299.044C100.781 298.988 101.773 298.9 102.661 298.78L102.721 299.32C101.713 299.504 100.677 299.624 99.613 299.68C98.549 299.728 97.389 299.752 96.133 299.752L96.013 299.116ZM96.181 292.72H98.965V291.412H99.685V292.72H102.457V293.332H96.181V292.72ZM97.585 295.936C97.585 296.336 97.745 296.66 98.065 296.908C98.385 297.148 98.801 297.268 99.313 297.268C99.833 297.268 100.253 297.148 100.573 296.908C100.893 296.66 101.053 296.336 101.053 295.936C101.053 295.536 100.893 295.212 100.573 294.964C100.253 294.716 99.833 294.592 99.313 294.592C98.793 294.592 98.373 294.716 98.053 294.964C97.741 295.212 97.585 295.536 97.585 295.936Z" fill="#333333"/>
<path d="M145.61 291.82V292.444C145.61 292.932 145.802 293.396 146.186 293.836C146.578 294.268 147.07 294.632 147.662 294.928C148.254 295.224 148.842 295.416 149.426 295.504L149.114 296.08C148.314 295.936 147.546 295.64 146.81 295.192C146.074 294.744 145.55 294.204 145.238 293.572C144.934 294.212 144.414 294.756 143.678 295.204C142.95 295.644 142.174 295.936 141.35 296.08L141.05 295.504C141.642 295.416 142.23 295.228 142.814 294.94C143.406 294.644 143.894 294.28 144.278 293.848C144.662 293.416 144.854 292.948 144.854 292.444V291.82H145.61ZM140.522 297.376H149.942V297.988H145.574V301.84H144.854V297.988H140.522V297.376Z" fill="#333333"/>
<path d="M193.107 291.868V295.348H189.975V296.788H194.319V297.388H184.911V296.788H189.255V295.348H186.135V291.868H193.107ZM185.955 298.6H193.143V301.84H192.423V299.212H185.955V298.6ZM192.387 294.736V292.468H186.843V294.736H192.387Z" fill="#333333"/>
<path d="M237.472 292V292.744C237.472 293.312 237.456 293.832 237.424 294.304C237.392 294.768 237.308 295.292 237.172 295.876H238.744V296.488H229.3V295.876H236.464C236.6 295.284 236.684 294.76 236.716 294.304C236.748 293.84 236.764 293.32 236.764 292.744V292.612H230.524V292H237.472ZM230.476 298.048H237.544V301.696H230.476V298.048ZM236.836 301.096V298.636H231.184V301.096H236.836Z" fill="#333333"/>
<path d="M281.908 292.312V292.912H275.68V294.556H281.692V295.156H275.68V296.92H282.028V297.52H278.752V299.86H283.132V300.472H273.688V299.86H278.032V297.52H274.948V292.312H281.908Z" fill="#333333"/>
<path d="M320.993 291.832C321.505 291.832 321.961 291.928 322.361 292.12C322.769 292.312 323.085 292.58 323.309 292.924C323.541 293.268 323.657 293.664 323.657 294.112C323.657 294.552 323.541 294.944 323.309 295.288C323.085 295.632 322.769 295.9 322.361 296.092C321.953 296.284 321.497 296.38 320.993 296.38C320.489 296.38 320.033 296.284 319.625 296.092C319.225 295.9 318.909 295.632 318.677 295.288C318.453 294.944 318.341 294.552 318.341 294.112C318.341 293.664 318.453 293.268 318.677 292.924C318.909 292.58 319.225 292.312 319.625 292.12C320.033 291.928 320.489 291.832 320.993 291.832ZM319.049 294.112C319.049 294.424 319.133 294.708 319.301 294.964C319.469 295.22 319.701 295.42 319.997 295.564C320.293 295.708 320.625 295.78 320.993 295.78C321.361 295.78 321.693 295.708 321.989 295.564C322.285 295.42 322.517 295.22 322.685 294.964C322.861 294.708 322.949 294.424 322.949 294.112C322.949 293.792 322.861 293.504 322.685 293.248C322.517 292.992 322.285 292.792 321.989 292.648C321.693 292.504 321.361 292.432 320.993 292.432C320.625 292.432 320.293 292.504 319.997 292.648C319.701 292.792 319.469 292.992 319.301 293.248C319.133 293.504 319.049 293.792 319.049 294.112ZM319.913 297.352H326.561V299.74H320.645V301.096H326.957V301.684H319.949V299.188H325.841V297.952H319.913V297.352ZM325.829 291.412H326.561V296.8H325.829V291.412Z" fill="#333333"/>
<path d="M48.2549 242.214C48.2549 240.557 49.598 239.214 51.2549 239.214H60.3072C61.964 239.214 63.3072 240.557 63.3072 242.214V281C63.3072 282.656 61.964 284 60.3072 284H51.2549C49.598 284 48.2549 282.656 48.2549 281V242.214Z" fill="#4C96EE"/>
<path d="M92.3365 235.143C92.3365 233.486 93.6797 232.143 95.3365 232.143H104.389C106.046 232.143 107.389 233.486 107.389 235.143V281C107.389 282.657 106.046 284 104.389 284H95.3366C93.6797 284 92.3365 282.657 92.3365 281V235.143Z" fill="#4C96EE"/>
<path d="M137.493 223.357C137.493 221.701 138.837 220.357 140.493 220.357H149.546C151.203 220.357 152.546 221.701 152.546 223.357V281C152.546 282.657 151.203 284 149.546 284H140.493C138.837 284 137.493 282.657 137.493 281V223.357Z" fill="#4C96EE"/>
<path d="M181.575 218.643C181.575 216.986 182.918 215.643 184.575 215.643H193.627C195.284 215.643 196.627 216.986 196.627 218.643V281C196.627 282.657 195.284 284 193.627 284H184.575C182.918 284 181.575 282.657 181.575 281V218.643Z" fill="#4C96EE"/>
<path d="M225.657 211.571C225.657 209.914 227 208.571 228.657 208.571H237.709C239.366 208.571 240.709 209.914 240.709 211.571V281C240.709 282.657 239.366 284 237.709 284H228.657C227 284 225.657 282.657 225.657 281V211.571Z" fill="#4C96EE"/>
<path d="M270.814 159.714C270.814 158.057 272.157 156.714 273.814 156.714H282.866C284.523 156.714 285.866 158.057 285.866 159.714V281C285.866 282.656 284.523 284 282.866 284H273.814C272.157 284 270.814 282.656 270.814 281V159.714Z" fill="#4C96EE"/>
<path d="M314.895 155C314.895 153.343 316.239 152 317.895 152H326.948C328.605 152 329.948 153.343 329.948 155V281C329.948 282.657 328.605 284 326.948 284H317.895C316.239 284 314.895 282.657 314.895 281V155Z" fill="#4C96EE"/>
<line x1="35" y1="193.25" x2="344" y2="193.25" stroke="#FF8787" stroke-width="1.5" stroke-dasharray="3 3"/>
</g>
</g>
<line x1="30.5" y1="319.5" x2="330.5" y2="319.5" stroke="#CFD0D2"/>
<path d="M33.888 340.448C33.888 342.016 33.7067 343.429 33.344 344.688C32.992 345.936 32.3467 347.104 31.408 348.192C30.4693 349.28 29.168 350.245 27.504 351.088L26.56 349.744C27.7547 349.136 28.736 348.475 29.504 347.76C30.272 347.045 30.864 346.256 31.28 345.392L26.896 345.824L26.672 344.304L31.808 343.984C31.9787 343.344 32.096 342.635 32.16 341.856H27.408V340.448H33.888ZM35.84 339.024H37.616V344.608H39.712V346.064H37.616V353.28H35.84V339.024ZM48.1124 344.304V339.328H49.7604V352.624H48.1124V345.728H46.3524V344.304H48.1124ZM40.9764 340.672H46.2564V342.064H42.6404V344.528H45.6804V345.872H42.6404V348.64C43.5364 348.629 44.299 348.603 44.9284 348.56C45.5684 348.507 46.2137 348.421 46.8644 348.304L47.0084 349.712C46.2617 349.851 45.5257 349.941 44.8004 349.984C44.075 350.027 43.1204 350.048 41.9364 350.048H40.9764V340.672ZM51.0244 339.04H52.7044V353.28H51.0244V339.04ZM66.0328 340.336V341.712C66.0328 342.928 66.0008 344.027 65.9368 345.008C65.8834 345.989 65.7394 347.136 65.5048 348.448L63.7288 348.256C63.9741 347.04 64.1234 345.952 64.1768 344.992C64.2408 344.021 64.2728 342.944 64.2728 341.76H55.8408V340.336H66.0328ZM54.5128 350.016H59.2488V345.056H60.9928V350.016H67.3928V351.456H54.5128V350.016ZM80.2731 339.024V353.312H78.5131V339.024H80.2731ZM69.2491 340.304H75.9211V345.648H71.0571V348.496C72.2731 348.485 73.3718 348.448 74.3531 348.384C75.3451 348.309 76.3585 348.187 77.3931 348.016L77.5691 349.44C76.4385 349.632 75.3291 349.765 74.2411 349.84C73.1638 349.904 71.9211 349.936 70.5131 349.936H69.2811V344.24H74.1451V341.712H69.2491V340.304ZM94.3055 339.056V346.4H92.5615V344.864H89.7295V345.936H83.1215V339.664H84.8655V341.456H88.0015V339.664H89.7295V340.928H92.5615V339.056H94.3055ZM88.0015 344.56V342.8H84.8655V344.56H88.0015ZM84.9935 347.008H94.3055V350.64H86.7535V351.744H94.7535V353.12H85.0255V349.36H92.5775V348.368H84.9935V347.008ZM92.5615 343.52V342.272H89.7295V343.52H92.5615ZM105.657 350.096V346.816H107.417V350.096H113.049V351.536H100.153V350.096H105.657ZM100.537 345.696C101.497 345.536 102.361 345.216 103.129 344.736C103.908 344.256 104.516 343.68 104.953 343.008C105.391 342.336 105.609 341.648 105.609 340.944V339.888H107.465V340.944C107.465 341.659 107.684 342.352 108.121 343.024C108.559 343.696 109.167 344.272 109.945 344.752C110.724 345.221 111.593 345.536 112.553 345.696L111.801 347.184C110.607 346.949 109.545 346.507 108.617 345.856C107.7 345.195 107.007 344.4 106.537 343.472C106.068 344.4 105.364 345.195 104.425 345.856C103.497 346.507 102.441 346.949 101.257 347.184L100.537 345.696ZM125.882 339.024V353.312H124.122V339.024H125.882ZM114.874 340.208H116.618V343.776H120.026V340.208H121.754V349.936H114.874V340.208ZM120.026 348.528V345.152H116.618V348.528H120.026ZM144.69 346.432V347.824H139.266V350.272H137.506V347.824H131.794V346.432H144.69ZM133.346 349.12H135.09V351.6H143.266V353.024H133.346V349.12ZM133.474 339.488H135.218V341.088H141.266V339.488H143.026V345.296H133.474V339.488ZM141.266 343.904V342.416H135.218V343.904H141.266ZM155.842 341.824V339.056H157.602V347.504H155.842V343.264H153.058V341.824H155.842ZM145.73 345.872C146.829 345.488 147.671 344.875 148.258 344.032C148.855 343.179 149.154 342.224 149.154 341.168V339.776H150.914V341.264C150.914 342.224 151.197 343.104 151.762 343.904C152.338 344.693 153.154 345.264 154.21 345.616L153.282 346.992C152.535 346.725 151.885 346.336 151.33 345.824C150.786 345.301 150.359 344.693 150.05 344C149.73 344.768 149.282 345.435 148.706 346C148.13 346.555 147.442 346.976 146.642 347.264L145.73 345.872ZM147.986 348.192H157.602V353.296H155.842V349.6H147.986V348.192Z" fill="black"/>
<path d="M322.933 521.294C318.637 537.326 309.992 551.858 297.952 563.284C285.912 574.709 270.947 582.582 254.712 586.033C238.477 589.484 221.603 588.378 205.957 582.838C190.311 577.297 176.502 567.538 166.057 554.639C155.611 541.74 148.936 526.203 146.77 509.747C144.603 493.291 147.03 476.557 153.781 461.394C160.532 446.231 171.345 433.23 185.023 423.829C198.702 414.427 214.714 408.992 231.29 408.123L233.645 453.062C225.357 453.496 217.351 456.214 210.512 460.914C203.672 465.615 198.266 472.115 194.89 479.697C191.515 487.278 190.302 495.646 191.385 503.874C192.468 512.102 195.806 519.87 201.028 526.319C206.251 532.769 213.156 537.649 220.979 540.419C228.802 543.189 237.238 543.742 245.356 542.017C253.474 540.291 260.956 536.355 266.976 530.642C272.996 524.929 277.319 517.663 279.467 509.647L322.933 521.294Z" fill="#4097FF"/>
<path d="M212.706 411.067C227.966 406.978 244.034 406.978 259.294 411.067C274.554 415.156 288.469 423.189 299.64 434.36C310.811 445.531 318.844 459.446 322.933 474.706C327.022 489.966 327.022 506.034 322.933 521.294L279.467 509.647C281.511 502.017 281.511 493.983 279.467 486.353C277.422 478.723 273.405 471.766 267.82 466.18C262.234 460.595 255.277 456.578 247.647 454.533C240.017 452.489 231.983 452.489 224.353 454.533L212.706 411.067Z" fill="#003EC3"/>
<rect x="22" y="366" width="30" height="15" rx="5" fill="#4097FF"/>
<path d="M77.038 368.716V373.686H78.956V374.708H77.038V381.05H75.806V368.716H77.038ZM67.574 377.816C69.114 377.041 70.304 376.085 71.144 374.946C71.9933 373.798 72.4833 372.496 72.614 371.04H68.176V370.046H73.846C73.846 371.903 73.3933 373.579 72.488 375.072C71.592 376.556 70.1827 377.779 68.26 378.74L67.574 377.816ZM89.4703 369.528V370.606C89.4703 371.399 89.4517 372.104 89.4143 372.72C89.377 373.336 89.279 374.036 89.1203 374.82H90.9123V375.828H85.9283V381.078H84.6963V375.828H79.7683V374.82H87.8883C88.0563 374.045 88.159 373.35 88.1963 372.734C88.243 372.109 88.2663 371.399 88.2663 370.606V370.508H81.1543V369.528H89.4703Z" fill="black"/>
<rect x="22" y="393" width="30" height="15" rx="5" fill="#003EC3"/>
<path d="M78.004 395.744V408.064H76.842V401.666H75.33V407.42H74.182V396.01H75.33V400.672H76.842V395.744H78.004ZM67.392 404.046C67.924 404.046 68.344 404.041 68.652 404.032V398.25H67.63V397.256H73.328V398.25H72.306V403.878C72.7447 403.85 73.1507 403.808 73.524 403.752L73.608 404.634C72.1893 404.914 70.164 405.054 67.532 405.054L67.392 404.046ZM71.2 403.962V398.25H69.758V404.018L71.2 403.962ZM88.7003 397.508V395.744H89.9183V404.928H88.7003V401.022H86.2783V400.028H88.7003V398.516H86.2783V397.508H88.7003ZM79.7683 402.366C80.6923 402.002 81.4297 401.423 81.9803 400.63C82.531 399.827 82.8063 398.945 82.8063 397.984V396.416H84.0243V397.984C84.0243 398.889 84.2903 399.729 84.8223 400.504C85.3637 401.269 86.0777 401.825 86.9643 402.17L86.3063 403.122C85.6437 402.842 85.065 402.445 84.5703 401.932C84.0757 401.409 83.6977 400.812 83.4363 400.14C83.1657 400.868 82.769 401.512 82.2463 402.072C81.733 402.623 81.1217 403.038 80.4123 403.318L79.7683 402.366ZM81.9663 404.004H83.1703V406.804H90.2123V407.784H81.9663V404.004Z" fill="black"/>
<rect x="284" y="426" width="58" height="30" rx="15" fill="#F1F1F1"/>
<path d="M301.136 441.016C301.659 441.315 302.085 441.725 302.416 442.248C302.747 442.76 302.912 443.267 302.912 443.768C302.912 444.419 302.736 445.005 302.384 445.528C302.043 446.04 301.557 446.44 300.928 446.728C300.309 447.016 299.605 447.16 298.816 447.16C298.027 447.16 297.317 447.011 296.688 446.712C296.069 446.403 295.584 445.981 295.232 445.448C294.891 444.904 294.72 444.285 294.72 443.592H296.784C296.784 444.104 296.971 444.525 297.344 444.856C297.728 445.176 298.219 445.336 298.816 445.336C299.435 445.336 299.941 445.176 300.336 444.856C300.731 444.525 300.928 444.104 300.928 443.592C300.928 443.091 300.731 442.68 300.336 442.36C299.952 442.029 299.456 441.864 298.848 441.864H298.032V440.184H298.864C299.419 440.184 299.872 440.04 300.224 439.752C300.576 439.453 300.752 439.075 300.752 438.616C300.752 438.168 300.581 437.805 300.24 437.528C299.899 437.24 299.461 437.096 298.928 437.096C298.405 437.096 297.979 437.24 297.648 437.528C297.317 437.816 297.152 438.184 297.152 438.632H295.088C295.088 437.981 295.248 437.4 295.568 436.888C295.899 436.376 296.352 435.981 296.928 435.704C297.515 435.416 298.181 435.272 298.928 435.272C299.664 435.272 300.32 435.411 300.896 435.688C301.472 435.955 301.92 436.328 302.24 436.808C302.56 437.288 302.72 437.837 302.72 438.456C302.72 438.915 302.571 439.384 302.272 439.864C301.984 440.344 301.605 440.728 301.136 441.016ZM308.889 445.368C309.391 445.368 309.828 445.197 310.201 444.856C310.575 444.515 310.863 444.029 311.065 443.4C311.268 442.771 311.369 442.04 311.369 441.208C311.369 440.376 311.268 439.645 311.065 439.016C310.863 438.387 310.575 437.901 310.201 437.56C309.828 437.219 309.391 437.048 308.889 437.048C308.388 437.048 307.945 437.219 307.561 437.56C307.188 437.901 306.895 438.387 306.681 439.016C306.479 439.645 306.377 440.376 306.377 441.208C306.377 442.04 306.479 442.771 306.681 443.4C306.895 444.029 307.188 444.515 307.561 444.856C307.945 445.197 308.388 445.368 308.889 445.368ZM304.313 441.208C304.313 440.056 304.505 439.027 304.889 438.12C305.284 437.213 305.828 436.509 306.521 436.008C307.215 435.496 308.004 435.24 308.889 435.24C309.764 435.24 310.548 435.496 311.241 436.008C311.935 436.509 312.473 437.213 312.857 438.12C313.241 439.027 313.433 440.056 313.433 441.208C313.433 442.36 313.241 443.389 312.857 444.296C312.473 445.203 311.935 445.912 311.241 446.424C310.548 446.925 309.764 447.176 308.889 447.176C308.004 447.176 307.215 446.925 306.521 446.424C305.828 445.912 305.284 445.203 304.889 444.296C304.505 443.389 304.313 442.36 304.313 441.208ZM325.485 435.24H327.533L320.029 447.176H318.029L325.485 435.24ZM315.277 438.28C315.277 437.683 315.415 437.139 315.693 436.648C315.981 436.147 316.365 435.752 316.845 435.464C317.325 435.176 317.858 435.032 318.445 435.032C319.021 435.032 319.549 435.176 320.029 435.464C320.509 435.752 320.887 436.147 321.165 436.648C321.453 437.139 321.597 437.683 321.597 438.28C321.597 438.877 321.458 439.427 321.181 439.928C320.903 440.419 320.519 440.808 320.029 441.096C319.549 441.384 319.021 441.528 318.445 441.528C317.858 441.528 317.325 441.384 316.845 441.096C316.365 440.808 315.981 440.419 315.693 439.928C315.415 439.427 315.277 438.877 315.277 438.28ZM317.165 438.28C317.165 438.664 317.287 438.989 317.533 439.256C317.778 439.512 318.082 439.64 318.445 439.64C318.807 439.64 319.111 439.512 319.357 439.256C319.602 438.989 319.725 438.664 319.725 438.28C319.725 437.907 319.602 437.592 319.357 437.336C319.111 437.069 318.807 436.936 318.445 436.936C318.082 436.936 317.778 437.069 317.533 437.336C317.287 437.592 317.165 437.907 317.165 438.28ZM323.805 444.008C323.805 443.411 323.943 442.867 324.221 442.376C324.509 441.875 324.893 441.48 325.373 441.192C325.853 440.904 326.386 440.76 326.973 440.76C327.549 440.76 328.077 440.904 328.557 441.192C329.047 441.48 329.431 441.875 329.709 442.376C329.986 442.867 330.125 443.411 330.125 444.008C330.125 444.605 329.981 445.155 329.693 445.656C329.415 446.147 329.037 446.536 328.557 446.824C328.077 447.112 327.549 447.256 326.973 447.256C326.386 447.256 325.853 447.112 325.373 446.824C324.893 446.536 324.509 446.147 324.221 445.656C323.943 445.155 323.805 444.605 323.805 444.008ZM325.693 444.008C325.693 444.381 325.815 444.701 326.061 444.968C326.306 445.235 326.61 445.368 326.973 445.368C327.335 445.368 327.639 445.235 327.885 444.968C328.13 444.701 328.253 444.381 328.253 444.008C328.253 443.624 328.13 443.304 327.885 443.048C327.639 442.781 327.335 442.648 326.973 442.648C326.61 442.648 326.306 442.781 326.061 443.048C325.815 443.304 325.693 443.624 325.693 444.008Z" fill="#003EC3"/>
<rect x="164" y="538" width="57" height="30" rx="15" fill="#F1F1F1"/>
<path d="M175.68 559.144L180.176 549.08L175.024 549.096V547.288H182.288L182.448 549.08L177.952 559.144H175.68ZM188.452 557.368C188.953 557.368 189.391 557.197 189.764 556.856C190.137 556.515 190.425 556.029 190.628 555.4C190.831 554.771 190.932 554.04 190.932 553.208C190.932 552.376 190.831 551.645 190.628 551.016C190.425 550.387 190.137 549.901 189.764 549.56C189.391 549.219 188.953 549.048 188.452 549.048C187.951 549.048 187.508 549.219 187.124 549.56C186.751 549.901 186.457 550.387 186.244 551.016C186.041 551.645 185.94 552.376 185.94 553.208C185.94 554.04 186.041 554.771 186.244 555.4C186.457 556.029 186.751 556.515 187.124 556.856C187.508 557.197 187.951 557.368 188.452 557.368ZM183.876 553.208C183.876 552.056 184.068 551.027 184.452 550.12C184.847 549.213 185.391 548.509 186.084 548.008C186.777 547.496 187.567 547.24 188.452 547.24C189.327 547.24 190.111 547.496 190.804 548.008C191.497 548.509 192.036 549.213 192.42 550.12C192.804 551.027 192.996 552.056 192.996 553.208C192.996 554.36 192.804 555.389 192.42 556.296C192.036 557.203 191.497 557.912 190.804 558.424C190.111 558.925 189.327 559.176 188.452 559.176C187.567 559.176 186.777 558.925 186.084 558.424C185.391 557.912 184.847 557.203 184.452 556.296C184.068 555.389 183.876 554.36 183.876 553.208ZM205.047 547.24H207.095L199.591 559.176H197.591L205.047 547.24ZM194.839 550.28C194.839 549.683 194.978 549.139 195.255 548.648C195.543 548.147 195.927 547.752 196.407 547.464C196.887 547.176 197.42 547.032 198.007 547.032C198.583 547.032 199.111 547.176 199.591 547.464C200.071 547.752 200.45 548.147 200.727 548.648C201.015 549.139 201.159 549.683 201.159 550.28C201.159 550.877 201.02 551.427 200.743 551.928C200.466 552.419 200.082 552.808 199.591 553.096C199.111 553.384 198.583 553.528 198.007 553.528C197.42 553.528 196.887 553.384 196.407 553.096C195.927 552.808 195.543 552.419 195.255 551.928C194.978 551.427 194.839 550.877 194.839 550.28ZM196.727 550.28C196.727 550.664 196.85 550.989 197.095 551.256C197.34 551.512 197.644 551.64 198.007 551.64C198.37 551.64 198.674 551.512 198.919 551.256C199.164 550.989 199.287 550.664 199.287 550.28C199.287 549.907 199.164 549.592 198.919 549.336C198.674 549.069 198.37 548.936 198.007 548.936C197.644 548.936 197.34 549.069 197.095 549.336C196.85 549.592 196.727 549.907 196.727 550.28ZM203.367 556.008C203.367 555.411 203.506 554.867 203.783 554.376C204.071 553.875 204.455 553.48 204.935 553.192C205.415 552.904 205.948 552.76 206.535 552.76C207.111 552.76 207.639 552.904 208.119 553.192C208.61 553.48 208.994 553.875 209.271 554.376C209.548 554.867 209.687 555.411 209.687 556.008C209.687 556.605 209.543 557.155 209.255 557.656C208.978 558.147 208.599 558.536 208.119 558.824C207.639 559.112 207.111 559.256 206.535 559.256C205.948 559.256 205.415 559.112 204.935 558.824C204.455 558.536 204.071 558.147 203.783 557.656C203.506 557.155 203.367 556.605 203.367 556.008ZM205.255 556.008C205.255 556.381 205.378 556.701 205.623 556.968C205.868 557.235 206.172 557.368 206.535 557.368C206.898 557.368 207.202 557.235 207.447 556.968C207.692 556.701 207.815 556.381 207.815 556.008C207.815 555.624 207.692 555.304 207.447 555.048C207.202 554.781 206.898 554.648 206.535 554.648C206.172 554.648 205.868 554.781 205.623 555.048C205.378 555.304 205.255 555.624 205.255 556.008Z" fill="#4097FF"/>
<rect x="1" y="1" width="359" height="602" rx="15" stroke="#EAEBED" stroke-width="2"/>
<defs>
<clipPath id="clip0_1_1503">
<rect width="329" height="242" fill="white" transform="translate(16 62)"/>
</clipPath>
<clipPath id="clip1_1_1503">
<rect width="329" height="192" fill="white" transform="translate(16 112)"/>
</clipPath>
</defs>
</svg>
