<svg width="329" height="242" viewBox="0 0 329 242" fill="none" xmlns="http://www.w3.org/2000/svg">
<g clip-path="url(#clip0_1_1506)">
<path d="M3.504 14.128V10.496C2.928 10.1653 2.48533 9.74933 2.176 9.248C1.86667 8.74667 1.712 8.18667 1.712 7.568C1.712 6.82133 1.936 6.16533 2.384 5.6C2.84267 5.024 3.46667 4.58133 4.256 4.272C5.056 3.96267 5.96267 3.808 6.976 3.808C7.98933 3.808 8.896 3.96267 9.696 4.272C10.496 4.58133 11.12 5.024 11.568 5.6C12.016 6.16533 12.24 6.82133 12.24 7.568C12.24 8.18667 12.0853 8.74667 11.776 9.248C11.4667 9.74933 11.0293 10.1653 10.464 10.496V14.128H13.44V15.552H0.544V14.128H3.504ZM3.44 7.568C3.44 8.304 3.76 8.88533 4.4 9.312C5.05067 9.73867 5.90933 9.952 6.976 9.952C8.04267 9.952 8.896 9.73867 9.536 9.312C10.1867 8.88533 10.512 8.304 10.512 7.568C10.512 6.84267 10.1867 6.26667 9.536 5.84C8.88533 5.40267 8.032 5.184 6.976 5.184C5.92 5.184 5.06667 5.40267 4.416 5.84C3.76533 6.26667 3.44 6.84267 3.44 7.568ZM8.704 14.128V11.152C8.14933 11.2693 7.57333 11.328 6.976 11.328C6.38933 11.328 5.81867 11.2693 5.264 11.152V14.128H8.704ZM18.5124 3.504C19.227 3.504 19.8724 3.64267 20.4484 3.92C21.0244 4.18667 21.4724 4.56533 21.7924 5.056C22.123 5.54667 22.2884 6.10133 22.2884 6.72C22.2884 7.33867 22.123 7.89333 21.7924 8.384C21.4724 8.864 21.0244 9.24267 20.4484 9.52C19.8724 9.78667 19.227 9.92 18.5124 9.92C17.8084 9.92 17.1684 9.78667 16.5924 9.52C16.027 9.24267 15.579 8.864 15.2484 8.384C14.9284 7.89333 14.7684 7.33867 14.7684 6.72C14.7684 6.10133 14.9284 5.54667 15.2484 5.056C15.579 4.56533 16.027 4.18667 16.5924 3.92C17.1684 3.64267 17.8084 3.504 18.5124 3.504ZM16.4644 6.72C16.4644 7.264 16.6564 7.696 17.0404 8.016C17.4244 8.336 17.915 8.496 18.5124 8.496C19.1204 8.496 19.6164 8.336 20.0004 8.016C20.3844 7.696 20.5764 7.264 20.5764 6.72C20.5764 6.176 20.3844 5.744 20.0004 5.424C19.6164 5.09333 19.1204 4.928 18.5124 4.928C17.915 4.928 17.4244 5.09333 17.0404 5.424C16.6564 5.744 16.4644 6.176 16.4644 6.72ZM16.9124 10.864H26.2884V14.592H18.6564V15.744H26.6884V17.12H16.9444V13.312H24.5444V12.224H16.9124V10.864ZM24.5284 3.056H26.2884V10.24H24.5284V3.056ZM40.3368 3.056V10.4H38.5928V8.864H35.7608V9.936H29.1528V3.664H30.8968V5.456H34.0328V3.664H35.7608V4.928H38.5928V3.056H40.3368ZM34.0328 8.56V6.8H30.8968V8.56H34.0328ZM31.0248 11.008H40.3368V14.64H32.7848V15.744H40.7848V17.12H31.0568V13.36H38.6088V12.368H31.0248V11.008ZM38.5928 7.52V6.272H35.7608V7.52H38.5928ZM54.6006 4.448V5.904H51.4966V7.088C51.4966 7.87733 51.6406 8.656 51.9286 9.424C52.2273 10.1813 52.6486 10.864 53.1926 11.472C53.7473 12.08 54.3926 12.5387 55.1286 12.848L54.1526 14.24C53.342 13.8773 52.6326 13.3493 52.0246 12.656C51.4273 11.952 50.9633 11.136 50.6326 10.208C50.302 11.2107 49.8326 12.096 49.2246 12.864C48.6166 13.632 47.9073 14.208 47.0966 14.592L46.0886 13.2C46.8246 12.8587 47.4646 12.368 48.0086 11.728C48.5633 11.0773 48.9846 10.3467 49.2726 9.536C49.5713 8.72533 49.7206 7.90933 49.7206 7.088V5.904H46.6166V4.448H54.6006ZM56.1526 3.056H57.9126V17.296H56.1526V3.056ZM73.017 9.2V10.496H67.465V11.536H71.433V14.896H63.417V15.872H71.833V17.168H61.705V13.696H69.705V12.816H61.657V11.536H65.705V10.496H60.185V9.2H73.017ZM60.745 7.408C62.1103 7.35467 63.209 7.15733 64.041 6.816C64.873 6.464 65.3797 6.02667 65.561 5.504H61.433V4.208H65.705V3.008H67.481V4.208H71.769V5.504H67.625C67.8063 6.02667 68.313 6.464 69.145 6.816C69.977 7.15733 71.0757 7.35467 72.441 7.408L71.945 8.736C70.6543 8.65067 69.5503 8.44267 68.633 8.112C67.7263 7.77067 67.049 7.31733 66.601 6.752C66.153 7.31733 65.4703 7.77067 64.553 8.112C63.6357 8.44267 62.5317 8.65067 61.241 8.736L60.745 7.408ZM90.7209 10.432V11.824H85.2969V14.272H83.5369V11.824H77.8249V10.432H90.7209ZM79.3769 13.12H81.1209V15.6H89.2969V17.024H79.3769V13.12ZM79.5049 3.488H81.2489V5.088H87.2969V3.488H89.0569V9.296H79.5049V3.488ZM87.2969 7.904V6.416H81.2489V7.904H87.2969ZM101.873 5.824V3.056H103.633V11.504H101.873V7.264H99.0893V5.824H101.873ZM91.7613 9.872C92.8599 9.488 93.7026 8.87467 94.2893 8.032C94.8866 7.17867 95.1853 6.224 95.1853 5.168V3.776H96.9453V5.264C96.9453 6.224 97.2279 7.104 97.7933 7.904C98.3693 8.69333 99.1853 9.264 100.241 9.616L99.3133 10.992C98.5666 10.7253 97.9159 10.336 97.3613 9.824C96.8173 9.30133 96.3906 8.69333 96.0813 8C95.7613 8.768 95.3133 9.43467 94.7373 10C94.1613 10.5547 93.4733 10.976 92.6733 11.264L91.7613 9.872ZM94.0173 12.192H103.633V17.296H101.873V13.6H94.0173V12.192Z" fill="black"/>
<path d="M10.008 28.34V29.192H5.724V32.912H4.692V29.192H0.456V28.34H10.008ZM1.008 26.66C1.648 26.572 2.244 26.392 2.796 26.12C3.356 25.84 3.804 25.5 4.14 25.1C4.476 24.692 4.644 24.272 4.644 23.84V23.828H1.344V22.988H9.084V23.828H5.808V23.84C5.808 24.272 5.976 24.692 6.312 25.1C6.648 25.5 7.096 25.84 7.656 26.12C8.216 26.392 8.816 26.572 9.456 26.66L9.06 27.5C8.204 27.356 7.428 27.076 6.732 26.66C6.044 26.236 5.544 25.72 5.232 25.112C4.912 25.72 4.408 26.236 3.72 26.66C3.032 27.076 2.26 27.356 1.404 27.5L1.008 26.66ZM19.1643 22.352V24.584H20.6883V25.448H19.1643V27.704H18.1203V22.352H19.1643ZM11.3763 22.928H16.2483V27.176H11.3763V22.928ZM15.2403 26.348V23.744H12.3963V26.348H15.2403ZM12.4203 28.196H19.1643V30.824H13.4763V31.928H19.5363V32.768H12.4443V30.044H18.1443V29.012H12.4203V28.196ZM30.4086 22.34V32.9H29.4126V22.34H30.4086ZM21.5526 26.9C21.5526 26.148 21.6446 25.496 21.8286 24.944C22.0126 24.384 22.2726 23.956 22.6086 23.66C22.9526 23.356 23.3486 23.204 23.7966 23.204C24.4366 23.204 24.9566 23.492 25.3566 24.068C25.7566 24.636 25.9886 25.42 26.0526 26.42H27.3126V22.568H28.2966V32.372H27.3126V27.272H26.0526C26.0126 28.304 25.7886 29.12 25.3806 29.72C24.9806 30.312 24.4526 30.608 23.7966 30.608C23.3486 30.608 22.9526 30.46 22.6086 30.164C22.2726 29.86 22.0126 29.428 21.8286 28.868C21.6446 28.308 21.5526 27.652 21.5526 26.9ZM22.5006 26.9C22.5006 27.748 22.6166 28.416 22.8486 28.904C23.0806 29.392 23.3966 29.636 23.7966 29.636C24.2046 29.636 24.5246 29.396 24.7566 28.916C24.9886 28.428 25.1046 27.756 25.1046 26.9C25.1046 26.052 24.9886 25.388 24.7566 24.908C24.5246 24.42 24.2046 24.176 23.7966 24.176C23.3966 24.176 23.0806 24.42 22.8486 24.908C22.6166 25.388 22.5006 26.052 22.5006 26.9ZM34.2248 22.724V25.472H40.3928V26.312H33.1928V22.724H34.2248ZM31.9208 27.692H41.4848V28.532H31.9208V27.692ZM33.1328 29.552H34.1528V31.808H40.4528V32.66H33.1328V29.552ZM51.4028 23.42V24.284H48.9668V25.52C48.9668 26.104 49.0908 26.684 49.3388 27.26C49.5868 27.836 49.9228 28.348 50.3468 28.796C50.7708 29.236 51.2428 29.568 51.7628 29.792L51.1748 30.62C50.5668 30.34 50.0228 29.92 49.5428 29.36C49.0708 28.8 48.7108 28.164 48.4628 27.452C48.2148 28.22 47.8508 28.912 47.3708 29.528C46.8988 30.136 46.3588 30.588 45.7508 30.884L45.1508 30.056C45.6628 29.816 46.1308 29.456 46.5548 28.976C46.9788 28.488 47.3108 27.94 47.5508 27.332C47.7988 26.724 47.9228 26.12 47.9228 25.52V24.284H45.4988V23.42H51.4028ZM52.7708 22.352H53.8148V32.912H52.7708V22.352ZM65.191 27.008V27.788H60.943V28.712H63.979V31.064H57.847V32.012H64.303V32.792H56.839V30.332H62.971V29.492H56.803V28.712H59.899V27.788H55.675V27.008H65.191ZM56.155 25.76C57.163 25.712 58.003 25.532 58.675 25.22C59.355 24.908 59.743 24.516 59.839 24.044H56.635V23.252H59.911V22.292H60.955V23.252H64.243V24.044H61.027C61.123 24.516 61.507 24.908 62.179 25.22C62.859 25.532 63.703 25.712 64.711 25.76L64.411 26.564C63.483 26.492 62.667 26.32 61.963 26.048C61.267 25.768 60.759 25.4 60.439 24.944C60.119 25.4 59.607 25.768 58.903 26.048C58.199 26.32 57.383 26.492 56.455 26.564L56.155 25.76ZM70.9153 22.532C72.0993 22.532 73.0153 22.688 73.6633 23C74.3193 23.312 74.6473 23.76 74.6473 24.344C74.6473 24.936 74.3193 25.392 73.6633 25.712C73.0073 26.024 72.0913 26.18 70.9153 26.18C69.7393 26.18 68.8233 26.024 68.1673 25.712C67.5113 25.392 67.1833 24.936 67.1833 24.344C67.1833 23.76 67.5113 23.312 68.1673 23C68.8233 22.688 69.7393 22.532 70.9153 22.532ZM66.1513 26.852H75.6913V27.692H66.1513V26.852ZM67.2913 28.544H74.4673V30.968H68.3353V31.988H74.7913V32.792H67.3273V30.224H73.4593V29.348H67.2913V28.544ZM68.2633 24.344C68.2633 24.688 68.4913 24.952 68.9473 25.136C69.4113 25.312 70.0673 25.4 70.9153 25.4C71.7633 25.4 72.4193 25.312 72.8833 25.136C73.3473 24.952 73.5793 24.688 73.5793 24.344C73.5793 24.016 73.3473 23.76 72.8833 23.576C72.4193 23.392 71.7633 23.3 70.9153 23.3C70.0673 23.3 69.4113 23.392 68.9473 23.576C68.4913 23.76 68.2633 24.016 68.2633 24.344ZM82.9812 22.7V23.504C82.9812 24.2 83.2132 24.832 83.6772 25.4C84.1412 25.968 84.7652 26.376 85.5492 26.624L85.0092 27.428C84.4252 27.228 83.9172 26.94 83.4852 26.564C83.0612 26.18 82.7332 25.728 82.5012 25.208C82.2772 25.8 81.9372 26.316 81.4812 26.756C81.0252 27.196 80.4812 27.528 79.8492 27.752L79.3332 26.9C80.1412 26.644 80.7772 26.212 81.2412 25.604C81.7132 24.988 81.9492 24.292 81.9492 23.516V22.7H82.9812ZM80.8692 28.316H87.6132V30.896H81.9252V31.964H87.9852V32.792H80.8932V30.116H86.5932V29.132H80.8692V28.316ZM86.5692 22.352H87.6132V24.62H89.1492V25.472H87.6132V27.836H86.5692V22.352ZM98.3295 22.352V25.076H99.6255V25.94H98.3295V28.688H97.2975V22.352H98.3295ZM89.7735 27.476C90.3255 27.18 90.7375 26.744 91.0095 26.168C91.2895 25.592 91.4295 25.012 91.4295 24.428V23.972H90.1335V23.12H93.1335V23.972H92.4135V24.428C92.4135 24.892 92.4855 25.372 92.6295 25.868C92.7735 26.364 93.0135 26.796 93.3495 27.164C93.6855 26.804 93.9215 26.38 94.0575 25.892C94.2015 25.396 94.2735 24.908 94.2735 24.428V23.972H93.5655V23.12H96.5055V23.972H95.2455V24.428C95.2455 25.02 95.3855 25.604 95.6655 26.18C95.9455 26.756 96.3615 27.188 96.9135 27.476L96.3615 28.232C95.6175 27.832 95.0895 27.164 94.7775 26.228C94.5055 27.212 94.0295 27.916 93.3495 28.34C92.6615 27.916 92.1815 27.208 91.9095 26.216C91.5895 27.168 91.0655 27.84 90.3375 28.232L89.7735 27.476ZM91.2255 29.168H98.3295V32.912H97.2975V30.008H91.2255V29.168ZM112.687 26.72V27.56H108.427V28.556H111.463V31.016H105.331V31.988H111.787V32.792H104.323V30.272H110.455V29.348H104.287V28.556H107.383V27.56H103.147V26.72H112.687ZM103.639 25.448C104.271 25.4 104.851 25.288 105.379 25.112C105.915 24.928 106.351 24.7 106.687 24.428C107.031 24.148 107.235 23.848 107.299 23.528H104.023V22.688H111.823V23.528H108.535C108.599 23.848 108.799 24.148 109.135 24.428C109.479 24.7 109.919 24.928 110.455 25.112C110.991 25.288 111.571 25.4 112.195 25.448L111.859 26.24C110.955 26.152 110.151 25.948 109.447 25.628C108.743 25.308 108.235 24.9 107.923 24.404C107.611 24.9 107.099 25.308 106.387 25.628C105.683 25.948 104.879 26.152 103.975 26.24L103.639 25.448ZM116.456 23.144C116.936 23.144 117.364 23.28 117.74 23.552C118.124 23.816 118.432 24.192 118.664 24.68H121.316V22.328H122.336V32.924H121.316V28.856H118.736C118.504 29.392 118.192 29.808 117.8 30.104C117.408 30.392 116.96 30.536 116.456 30.536C115.944 30.536 115.488 30.384 115.088 30.08C114.688 29.776 114.376 29.348 114.152 28.796C113.928 28.236 113.816 27.584 113.816 26.84C113.816 26.096 113.928 25.444 114.152 24.884C114.376 24.324 114.688 23.896 115.088 23.6C115.488 23.296 115.944 23.144 116.456 23.144ZM114.8 26.84C114.8 27.4 114.868 27.888 115.004 28.304C115.148 28.72 115.344 29.044 115.592 29.276C115.84 29.5 116.128 29.612 116.456 29.612C116.784 29.612 117.072 29.5 117.32 29.276C117.576 29.044 117.772 28.72 117.908 28.304C118.052 27.88 118.124 27.392 118.124 26.84C118.124 26.288 118.052 25.804 117.908 25.388C117.772 24.964 117.576 24.64 117.32 24.416C117.072 24.192 116.784 24.08 116.456 24.08C116.128 24.08 115.84 24.192 115.592 24.416C115.344 24.64 115.148 24.96 115.004 25.376C114.868 25.792 114.8 26.28 114.8 26.84ZM118.952 25.532C119.048 25.924 119.096 26.36 119.096 26.84C119.096 27.256 119.06 27.644 118.988 28.004H121.316V25.532H118.952ZM125.72 23.216V24.764H128.912V23.216H129.944V27.98H127.844V29.84C128.908 29.784 129.82 29.704 130.58 29.6L130.664 30.368C129.112 30.632 127.152 30.764 124.784 30.764H124.16L124.004 29.9C125.204 29.9 126.136 29.892 126.8 29.876V27.98H124.7V23.216H125.72ZM128.912 27.14V25.58H125.72V27.14H128.912ZM131.228 22.34H132.248V26.744H133.892V27.62H132.248V32.9H131.228V22.34ZM136.928 30.704V27.896C136.48 27.648 136.132 27.34 135.884 26.972C135.644 26.604 135.524 26.184 135.524 25.712C135.524 25.168 135.688 24.692 136.016 24.284C136.344 23.868 136.8 23.548 137.384 23.324C137.968 23.1 138.632 22.988 139.376 22.988C140.128 22.988 140.792 23.1 141.368 23.324C141.952 23.548 142.408 23.868 142.736 24.284C143.064 24.692 143.228 25.168 143.228 25.712C143.228 26.176 143.108 26.592 142.868 26.96C142.628 27.328 142.292 27.632 141.86 27.872V30.704H144.176V31.556H134.612V30.704H136.928ZM136.544 25.712C136.544 26.096 136.664 26.432 136.904 26.72C137.144 27.008 137.476 27.232 137.9 27.392C138.332 27.544 138.824 27.62 139.376 27.62C139.928 27.62 140.42 27.544 140.852 27.392C141.284 27.232 141.62 27.008 141.86 26.72C142.1 26.432 142.22 26.096 142.22 25.712C142.22 25.336 142.1 25.004 141.86 24.716C141.62 24.428 141.284 24.204 140.852 24.044C140.42 23.884 139.928 23.804 139.376 23.804C138.824 23.804 138.332 23.884 137.9 24.044C137.476 24.204 137.144 24.428 136.904 24.716C136.664 25.004 136.544 25.336 136.544 25.712ZM140.816 30.704V28.268C140.368 28.38 139.888 28.436 139.376 28.436C138.904 28.436 138.432 28.384 137.96 28.28V30.704H140.816Z" fill="black"/>
<path d="M288.397 37.328H289.501V40.412H291.025V41.312H289.501V44.984H288.397V37.328ZM281.725 43.16V38.216H286.417V39.116H282.817V42.26C284.869 42.26 286.009 42.188 287.341 41.912L287.461 42.788C286.045 43.076 284.809 43.16 282.565 43.16H281.725ZM282.865 47.696V44.216H283.945V46.796H289.945V47.696H282.865ZM295.177 37.82C296.761 37.82 297.889 38.708 297.889 40.016C297.889 41.3 296.761 42.2 295.177 42.2C293.605 42.2 292.465 41.3 292.465 40.016C292.465 38.708 293.605 37.82 295.177 37.82ZM291.721 43.028C293.653 43.028 296.317 43.016 298.633 42.656L298.705 43.472C297.745 43.652 296.749 43.76 295.777 43.832V47.588H294.673V43.892C293.653 43.94 292.693 43.952 291.853 43.952L291.721 43.028ZM293.509 40.016C293.509 40.784 294.205 41.3 295.177 41.3C296.149 41.3 296.845 40.784 296.845 40.016C296.845 39.224 296.149 38.708 295.177 38.708C294.205 38.708 293.509 39.224 293.509 40.016ZM299.353 47.924V37.328H300.433V47.924H299.353ZM303.529 40.016C303.889 40.016 304.141 40.268 304.141 40.628C304.141 40.988 303.889 41.24 303.529 41.24C303.169 41.24 302.905 40.988 302.905 40.628C302.905 40.268 303.169 40.016 303.529 40.016ZM302.905 44.66C302.905 44.3 303.169 44.048 303.529 44.048C303.889 44.048 304.141 44.3 304.141 44.66C304.141 45.02 303.889 45.284 303.529 45.284C303.169 45.284 302.905 45.02 302.905 44.66ZM308.887 38.264H313.795V43.22H308.887V38.264ZM309.967 42.332H312.727V39.14H309.967V42.332ZM310.075 47.696V44.336H311.167V46.796H317.167V47.696H310.075ZM315.619 45.08V37.328H316.723V40.508H318.235V41.42H316.723V45.08H315.619ZM326.576 37.328H327.668V45.38H326.576V44.336H324.464V43.568H326.576V37.328ZM318.896 42.176C320.84 42.176 323.456 42.152 325.7 41.864L325.772 42.656C324.872 42.8 323.924 42.896 322.988 42.956V45.02H321.896V43.016C320.876 43.064 319.892 43.076 319.04 43.076L318.896 42.176ZM319.712 39.596C319.712 38.48 320.78 37.748 322.328 37.748C323.876 37.748 324.932 38.48 324.932 39.596C324.932 40.724 323.876 41.456 322.328 41.456C320.78 41.456 319.712 40.724 319.712 39.596ZM320.36 47.696V44.6H321.452V46.796H327.92V47.696H320.36ZM320.756 39.596C320.756 40.244 321.404 40.64 322.328 40.64C323.252 40.64 323.888 40.244 323.888 39.596C323.888 38.96 323.252 38.552 322.328 38.552C321.404 38.552 320.756 38.96 320.756 39.596Z" fill="#797979"/>
<g clip-path="url(#clip1_1_1506)">
<path opacity="0.25" d="M18.2778 221.5H329" stroke="#CCCCCC"/>
<path opacity="0.25" d="M18.2778 180.5H329" stroke="#CCCCCC"/>
<path opacity="0.25" d="M18.2778 139.5H329" stroke="#CCCCCC"/>
<path opacity="0.25" d="M18.2778 98.5H329" stroke="#CCCCCC"/>
<path opacity="0.25" d="M18.2778 57.5H329" stroke="#CCCCCC"/>
<path opacity="0.25" d="M18.8153 57V222" stroke="#CCCCCC"/>
<path opacity="0.25" d="M63.0507 57V222" stroke="#CCCCCC"/>
<path opacity="0.25" d="M107.286 57V222" stroke="#CCCCCC"/>
<path opacity="0.25" d="M151.521 57V222" stroke="#CCCCCC"/>
<path opacity="0.25" d="M195.756 57V222" stroke="#CCCCCC"/>
<path opacity="0.25" d="M239.992 57V222" stroke="#CCCCCC"/>
<path opacity="0.25" d="M284.227 57V222" stroke="#CCCCCC"/>
<path opacity="0.25" d="M328.462 57V222" stroke="#CCCCCC"/>
<path d="M3.86193 225.448C4.30193 225.448 4.69393 225.288 5.03793 224.968C5.38993 224.648 5.66193 224.2 5.85393 223.624C6.04593 223.048 6.14193 222.396 6.14193 221.668C6.14193 220.94 6.04593 220.292 5.85393 219.724C5.66193 219.148 5.38993 218.7 5.03793 218.38C4.69393 218.06 4.30193 217.9 3.86193 217.9C3.42193 217.9 3.02593 218.06 2.67393 218.38C2.32993 218.7 2.05793 219.148 1.85793 219.724C1.66593 220.292 1.56993 220.94 1.56993 221.668C1.56993 222.396 1.66593 223.048 1.85793 223.624C2.05793 224.2 2.32993 224.648 2.67393 224.968C3.02593 225.288 3.42193 225.448 3.86193 225.448ZM0.849925 221.668C0.849925 220.82 0.977925 220.064 1.23393 219.4C1.48993 218.728 1.84593 218.204 2.30193 217.828C2.75793 217.452 3.27793 217.264 3.86193 217.264C4.44593 217.264 4.96193 217.452 5.40993 217.828C5.86593 218.204 6.22193 218.728 6.47793 219.4C6.73393 220.064 6.86193 220.82 6.86193 221.668C6.86193 222.524 6.73393 223.288 6.47793 223.96C6.22193 224.624 5.86593 225.144 5.40993 225.52C4.96193 225.896 4.44593 226.084 3.86193 226.084C3.27793 226.084 2.75793 225.896 2.30193 225.52C1.84593 225.144 1.48993 224.624 1.23393 223.96C0.977925 223.288 0.849925 222.524 0.849925 221.668Z" fill="#333333"/>
<path d="M6.30486 185H5.58486V177.164L4.38486 178.004L3.97686 177.452L5.58486 176.348H6.30486V185Z" fill="#333333"/>
<path d="M5.51811 139.524C5.91811 139.716 6.24211 140 6.49011 140.376C6.73811 140.752 6.86211 141.144 6.86211 141.552C6.86211 142.04 6.74211 142.476 6.50211 142.86C6.27011 143.236 5.94611 143.532 5.53011 143.748C5.11411 143.964 4.63811 144.072 4.10211 144.072C3.56611 144.072 3.09011 143.964 2.67411 143.748C2.25811 143.532 1.93411 143.236 1.70211 142.86C1.47011 142.476 1.35411 142.04 1.35411 141.552H2.07411C2.07411 142.104 2.26211 142.556 2.63811 142.908C3.02211 143.26 3.51011 143.436 4.10211 143.436C4.70211 143.436 5.19011 143.264 5.56611 142.92C5.95011 142.576 6.14211 142.136 6.14211 141.6C6.14211 141.088 5.95411 140.668 5.57811 140.34C5.20211 140.012 4.71811 139.848 4.12611 139.848H3.63411V139.188H4.12611C4.67811 139.188 5.13011 139.036 5.48211 138.732C5.84211 138.428 6.02211 138.036 6.02211 137.556C6.02211 137.068 5.84611 136.668 5.49411 136.356C5.15011 136.044 4.71011 135.888 4.17411 135.888C3.62211 135.888 3.17011 136.052 2.81811 136.38C2.47411 136.7 2.30211 137.112 2.30211 137.616H1.58211C1.58211 137.16 1.69011 136.752 1.90611 136.392C2.13011 136.032 2.43811 135.752 2.83011 135.552C3.22211 135.352 3.67011 135.252 4.17411 135.252C4.67011 135.252 5.11011 135.352 5.49411 135.552C5.88611 135.752 6.19011 136.032 6.40611 136.392C6.63011 136.752 6.74211 137.16 6.74211 137.616C6.74211 137.976 6.63011 138.332 6.40611 138.684C6.19011 139.036 5.89411 139.316 5.51811 139.524Z" fill="#333333"/>
<path d="M1.69236 98.776L1.95636 94.324H6.25236V94.972H2.65236L2.47236 97.936C2.71236 97.792 2.96436 97.68 3.22836 97.6C3.50036 97.512 3.76036 97.468 4.00836 97.468C4.56036 97.468 5.05236 97.588 5.48436 97.828C5.91636 98.06 6.25236 98.388 6.49236 98.812C6.74036 99.236 6.86436 99.716 6.86436 100.252C6.86436 100.804 6.74036 101.296 6.49236 101.728C6.25236 102.16 5.91636 102.5 5.48436 102.748C5.05236 102.988 4.56036 103.108 4.00836 103.108C3.35236 103.108 2.76836 102.908 2.25636 102.508C1.74436 102.108 1.41236 101.596 1.26036 100.972L1.96836 100.804C2.08036 101.284 2.32436 101.676 2.70036 101.98C3.07636 102.276 3.51236 102.424 4.00836 102.424C4.41636 102.424 4.78036 102.332 5.10036 102.148C5.42836 101.964 5.68436 101.708 5.86836 101.38C6.05236 101.044 6.14436 100.668 6.14436 100.252C6.14436 99.844 6.05236 99.48 5.86836 99.16C5.68436 98.84 5.42836 98.592 5.10036 98.416C4.78036 98.232 4.41636 98.14 4.00836 98.14C3.72836 98.14 3.44036 98.212 3.14436 98.356C2.84836 98.492 2.60436 98.672 2.41236 98.896L1.69236 98.776Z" fill="#333333"/>
<path d="M2.52196 61.988L6.08596 53.972H1.84996V53.336H6.76996L6.86596 53.972L3.30196 61.988H2.52196Z" fill="#333333"/>
<path d="M44.1561 229.412V235.592H43.4361V234.932H41.2641V234.428H43.4361V229.412H44.1561ZM35.6841 233.444C36.9961 233.444 38.2121 233.428 39.3321 233.396C40.4521 233.356 41.5161 233.276 42.5241 233.156L42.5721 233.648C41.5801 233.8 40.5121 233.9 39.3681 233.948V235.64H38.6481V233.984C37.9681 234.008 37.0121 234.02 35.7801 234.02L35.6841 233.444ZM36.5241 231.2C36.5241 230.712 36.7521 230.328 37.2081 230.048C37.6721 229.768 38.2921 229.628 39.0681 229.628C39.8441 229.628 40.4641 229.772 40.9281 230.06C41.3921 230.34 41.6241 230.72 41.6241 231.2C41.6241 231.68 41.3921 232.06 40.9281 232.34C40.4641 232.62 39.8441 232.76 39.0681 232.76C38.2921 232.76 37.6721 232.62 37.2081 232.34C36.7521 232.06 36.5241 231.68 36.5241 231.2ZM37.1961 231.2C37.1961 231.512 37.3681 231.764 37.7121 231.956C38.0561 232.148 38.5081 232.244 39.0681 232.244C39.6281 232.244 40.0801 232.148 40.4241 231.956C40.7681 231.764 40.9401 231.512 40.9401 231.2C40.9401 230.888 40.7681 230.64 40.4241 230.456C40.0881 230.264 39.6361 230.168 39.0681 230.168C38.5081 230.168 38.0561 230.264 37.7121 230.456C37.3681 230.64 37.1961 230.888 37.1961 231.2ZM37.3041 236H44.1561V238.04H38.0481V239.144H44.5641V239.708H37.3401V237.536H43.4481V236.552H37.3041V236Z" fill="#333333"/>
<path d="M88.053 229.412V233.912H89.805V234.548H88.053V239.84H87.333V229.412H88.053ZM80.013 237.116C81.277 237.116 82.261 237.104 82.965 237.08V235.832C82.341 235.776 81.841 235.58 81.465 235.244C81.089 234.908 80.901 234.472 80.901 233.936C80.901 233.36 81.121 232.896 81.561 232.544C82.009 232.192 82.593 232.016 83.313 232.016C84.033 232.016 84.617 232.192 85.065 232.544C85.513 232.896 85.737 233.36 85.737 233.936C85.737 234.464 85.549 234.896 85.173 235.232C84.805 235.568 84.309 235.768 83.685 235.832V237.044C84.781 236.988 85.773 236.9 86.661 236.78L86.721 237.32C85.713 237.504 84.677 237.624 83.613 237.68C82.549 237.728 81.389 237.752 80.133 237.752L80.013 237.116ZM80.181 230.72H82.965V229.412H83.685V230.72H86.457V231.332H80.181V230.72ZM81.585 233.936C81.585 234.336 81.745 234.66 82.065 234.908C82.385 235.148 82.801 235.268 83.313 235.268C83.833 235.268 84.253 235.148 84.573 234.908C84.893 234.66 85.053 234.336 85.053 233.936C85.053 233.536 84.893 233.212 84.573 232.964C84.253 232.716 83.833 232.592 83.313 232.592C82.793 232.592 82.373 232.716 82.053 232.964C81.741 233.212 81.585 233.536 81.585 233.936Z" fill="#333333"/>
<path d="M129.61 229.82V230.444C129.61 230.932 129.802 231.396 130.186 231.836C130.578 232.268 131.07 232.632 131.662 232.928C132.254 233.224 132.842 233.416 133.426 233.504L133.114 234.08C132.314 233.936 131.546 233.64 130.81 233.192C130.074 232.744 129.55 232.204 129.238 231.572C128.934 232.212 128.414 232.756 127.678 233.204C126.95 233.644 126.174 233.936 125.35 234.08L125.05 233.504C125.642 233.416 126.23 233.228 126.814 232.94C127.406 232.644 127.894 232.28 128.278 231.848C128.662 231.416 128.854 230.948 128.854 230.444V229.82H129.61ZM124.522 235.376H133.942V235.988H129.574V239.84H128.854V235.988H124.522V235.376Z" fill="#333333"/>
<path d="M177.107 229.868V233.348H173.975V234.788H178.319V235.388H168.911V234.788H173.255V233.348H170.135V229.868H177.107ZM169.955 236.6H177.143V239.84H176.423V237.212H169.955V236.6ZM176.387 232.736V230.468H170.843V232.736H176.387Z" fill="#333333"/>
<path d="M221.472 230V230.744C221.472 231.312 221.456 231.832 221.424 232.304C221.392 232.768 221.308 233.292 221.172 233.876H222.744V234.488H213.3V233.876H220.464C220.6 233.284 220.684 232.76 220.716 232.304C220.748 231.84 220.764 231.32 220.764 230.744V230.612H214.524V230H221.472ZM214.476 236.048H221.544V239.696H214.476V236.048ZM220.836 239.096V236.636H215.184V239.096H220.836Z" fill="#333333"/>
<path d="M265.908 230.312V230.912H259.68V232.556H265.692V233.156H259.68V234.92H266.028V235.52H262.752V237.86H267.132V238.472H257.688V237.86H262.032V235.52H258.948V230.312H265.908Z" fill="#333333"/>
<path d="M304.993 229.832C305.505 229.832 305.961 229.928 306.361 230.12C306.769 230.312 307.085 230.58 307.309 230.924C307.541 231.268 307.657 231.664 307.657 232.112C307.657 232.552 307.541 232.944 307.309 233.288C307.085 233.632 306.769 233.9 306.361 234.092C305.953 234.284 305.497 234.38 304.993 234.38C304.489 234.38 304.033 234.284 303.625 234.092C303.225 233.9 302.909 233.632 302.677 233.288C302.453 232.944 302.341 232.552 302.341 232.112C302.341 231.664 302.453 231.268 302.677 230.924C302.909 230.58 303.225 230.312 303.625 230.12C304.033 229.928 304.489 229.832 304.993 229.832ZM303.049 232.112C303.049 232.424 303.133 232.708 303.301 232.964C303.469 233.22 303.701 233.42 303.997 233.564C304.293 233.708 304.625 233.78 304.993 233.78C305.361 233.78 305.693 233.708 305.989 233.564C306.285 233.42 306.517 233.22 306.685 232.964C306.861 232.708 306.949 232.424 306.949 232.112C306.949 231.792 306.861 231.504 306.685 231.248C306.517 230.992 306.285 230.792 305.989 230.648C305.693 230.504 305.361 230.432 304.993 230.432C304.625 230.432 304.293 230.504 303.997 230.648C303.701 230.792 303.469 230.992 303.301 231.248C303.133 231.504 303.049 231.792 303.049 232.112ZM303.913 235.352H310.561V237.74H304.645V239.096H310.957V239.684H303.949V237.188H309.841V235.952H303.913V235.352ZM309.829 229.412H310.561V234.8H309.829V229.412Z" fill="#333333"/>
<path d="M32.2549 180.214C32.2549 178.557 33.598 177.214 35.2549 177.214H44.3072C45.964 177.214 47.3072 178.557 47.3072 180.214V219C47.3072 220.656 45.964 222 44.3072 222H35.2549C33.598 222 32.2549 220.656 32.2549 219V180.214Z" fill="#4C96EE"/>
<path d="M76.3365 173.143C76.3365 171.486 77.6797 170.143 79.3365 170.143H88.3888C90.0457 170.143 91.3888 171.486 91.3888 173.143V219C91.3888 220.657 90.0457 222 88.3888 222H79.3366C77.6797 222 76.3365 220.657 76.3365 219V173.143Z" fill="#4C96EE"/>
<path d="M121.493 161.357C121.493 159.701 122.837 158.357 124.493 158.357H133.546C135.203 158.357 136.546 159.701 136.546 161.357V219C136.546 220.657 135.203 222 133.546 222H124.493C122.837 222 121.493 220.657 121.493 219V161.357Z" fill="#4C96EE"/>
<path d="M165.575 156.643C165.575 154.986 166.918 153.643 168.575 153.643H177.627C179.284 153.643 180.627 154.986 180.627 156.643V219C180.627 220.657 179.284 222 177.627 222H168.575C166.918 222 165.575 220.657 165.575 219V156.643Z" fill="#4C96EE"/>
<path d="M209.657 149.571C209.657 147.914 211 146.571 212.657 146.571H221.709C223.366 146.571 224.709 147.914 224.709 149.571V219C224.709 220.657 223.366 222 221.709 222H212.657C211 222 209.657 220.657 209.657 219V149.571Z" fill="#4C96EE"/>
<path d="M254.814 97.7139C254.814 96.057 256.157 94.7139 257.814 94.7139H266.866C268.523 94.7139 269.866 96.057 269.866 97.7139V219C269.866 220.656 268.523 222 266.866 222H257.814C256.157 222 254.814 220.656 254.814 219V97.7139Z" fill="#4C96EE"/>
<path d="M298.895 93C298.895 91.3431 300.239 90 301.895 90H310.948C312.605 90 313.948 91.3431 313.948 93V219C313.948 220.657 312.605 222 310.948 222H301.895C300.239 222 298.895 220.657 298.895 219V93Z" fill="#4C96EE"/>
<line x1="19" y1="131.25" x2="328" y2="131.25" stroke="#FF8787" stroke-width="1.5" stroke-dasharray="3 3"/>
</g>
</g>
<defs>
<clipPath id="clip0_1_1506">
<rect width="329" height="242" fill="white"/>
</clipPath>
<clipPath id="clip1_1_1506">
<rect width="329" height="192" fill="white" transform="translate(0 50)"/>
</clipPath>
</defs>
</svg>
