<svg width="30" height="30" viewBox="0 0 30 30" fill="none" xmlns="http://www.w3.org/2000/svg">
<path fill-rule="evenodd" clip-rule="evenodd" d="M15 30C23.2843 30 30 23.2843 30 15C30 6.71573 23.2843 0 15 0C6.71573 0 0 6.71573 0 15C0 23.2843 6.71573 30 15 30ZM18.1818 11.8182H11.8182V18.1818H18.1818V11.8182Z" fill="#BAD3F0"/>
<path fill-rule="evenodd" clip-rule="evenodd" d="M15.0909 26.0002C21.2163 26.0002 26.1818 21.0346 26.1818 14.9093C26.1818 8.78393 21.2163 3.81836 15.0909 3.81836C8.96559 3.81836 4.00002 8.78393 4.00002 14.9093C4.00002 21.0346 8.96559 26.0002 15.0909 26.0002ZM18.1819 11.8184H11.8182V18.182H18.1819V11.8184Z" fill="#6E98C9"/>
</svg>
