<svg width="24" height="24" viewBox="0 0 24 24" fill="none" xmlns="http://www.w3.org/2000/svg">
<mask id="mask0_459_81" style="mask-type:alpha" maskUnits="userSpaceOnUse" x="0" y="0" width="24" height="24">
<rect width="24" height="24" fill="#D9D9D9"/>
</mask>
<g mask="url(#mask0_459_81)">
<path d="M12 16.8002L8.1 20.6752C7.91667 20.8585 7.6875 20.9544 7.4125 20.9627C7.1375 20.971 6.9 20.8752 6.7 20.6752C6.51667 20.4919 6.425 20.2585 6.425 19.9752C6.425 19.6919 6.51667 19.4585 6.7 19.2752L10.575 15.4002C10.9583 15.0169 11.4333 14.8252 12 14.8252C12.5667 14.8252 13.0417 15.0169 13.425 15.4002L17.3 19.2752C17.4833 19.4585 17.5792 19.6877 17.5875 19.9627C17.5958 20.2377 17.5 20.4752 17.3 20.6752C17.1167 20.8585 16.8833 20.9502 16.6 20.9502C16.3167 20.9502 16.0833 20.8585 15.9 20.6752L12 16.8002ZM12 10.8002L8.1 14.6752C7.91667 14.8585 7.6875 14.9544 7.4125 14.9627C7.1375 14.971 6.9 14.8752 6.7 14.6752C6.51667 14.4919 6.425 14.2585 6.425 13.9752C6.425 13.6919 6.51667 13.4585 6.7 13.2752L10.575 9.4002C10.9583 9.01686 11.4333 8.8252 12 8.8252C12.5667 8.8252 13.0417 9.01686 13.425 9.4002L17.3 13.2752C17.4833 13.4585 17.5792 13.6877 17.5875 13.9627C17.5958 14.2377 17.5 14.4752 17.3 14.6752C17.1167 14.8585 16.8833 14.9502 16.6 14.9502C16.3167 14.9502 16.0833 14.8585 15.9 14.6752L12 10.8002ZM12 4.8002L8.1 8.6752C7.91667 8.85853 7.6875 8.95436 7.4125 8.9627C7.1375 8.97103 6.9 8.8752 6.7 8.6752C6.51667 8.49186 6.425 8.25853 6.425 7.9752C6.425 7.69186 6.51667 7.45853 6.7 7.2752L10.575 3.4002C10.9583 3.01686 11.4333 2.8252 12 2.8252C12.5667 2.8252 13.0417 3.01686 13.425 3.4002L18 7.9752L16.6 9.3752L12 4.8002Z" fill="#FF8787"/>
</g>
</svg>
